<?xml version="1.0" encoding="UTF-8"?><!DOCTYPE svg PUBLIC "-//W3C//DTD SVG 1.1//EN" "http://www.w3.org/Graphics/SVG/1.1/DTD/svg11.dtd"><svg xmlns="http://www.w3.org/2000/svg" xmlns:xlink="http://www.w3.org/1999/xlink"><defs>
<clipPath id="clip0_37030_445">
<rect width="101" height="18" fill="white"/>
</clipPath>
</defs><symbol id="logo-text" viewBox="0 0 101 18"><g fill="none">
<g clip-path="url(#clip0_37030_445)">
<path d="M1.26449 16.5385C0.36955 15.2762 -0.0747041 13.7627 1.02073e-05 12.2308V5.84615C-0.108365 4.29774 0.308071 2.75746 1.18546 1.46154C2.05478 0.461538 3.39829 0 5.37403 0C7.34978 0 8.61425 0.461538 9.40455 1.30769C10.2626 2.37941 10.6846 3.72136 10.59 5.07692V6.61539H6.71754V4.84615C6.74881 4.32289 6.66808 3.799 6.48045 3.30769C6.38016 3.10938 6.2212 2.9448 6.02403 2.83513C5.82686 2.72547 5.60049 2.67572 5.37403 2.69231C4.82082 2.69231 4.42568 2.84615 4.26762 3.23077C4.08883 3.77733 4.00862 4.34988 4.03053 4.92308V13.1538C3.98879 13.71 4.0978 14.267 4.34665 14.7692C4.5047 15.1538 4.89985 15.3077 5.45306 15.3077C6.00627 15.3077 6.32239 15.1538 6.48045 14.7692C6.66013 14.2494 6.74049 13.7019 6.71754 13.1538V11.3077H10.59V12.8462C10.6704 14.2238 10.2508 15.5852 9.40455 16.6923C8.61425 17.6154 7.27075 18.0769 5.37403 18.0769C3.47732 18 2.05478 17.5385 1.26449 16.5385Z" fill="#111111"/>
<path d="M15.2527 0.23077H19.7574L23.0767 17.7692H19.4413L18.8091 14.0769H16.2011L15.5689 17.7692H11.8545L15.2527 0.23077ZM18.493 11.7692L17.5446 4.92308L16.5962 11.7692H18.493Z" fill="#111111"/>
<path d="M25.8427 3.15385H23.1557V0.23077H32.5602V3.07692H29.8732V17.7692H25.8427V3.15385Z" fill="#111111"/>
<path d="M39.7519 0.23077H46.7066V2.07692H42.2019V7.84615H45.8372V9.61539H42.2019V16.0769H46.7066V17.8462H39.6729V0.23077H39.7519Z" fill="#111111"/>
<path d="M48.7613 0.23077H50.5L55.6369 11.8462V0.23077H57.6917V17.7692H56.1111L50.8951 5.76923V17.7692H48.7613V0.23077Z" fill="#111111"/>
<path d="M60.0626 0.23077H67.0172V2.07692H62.5125V7.84615H66.1479V9.61539H62.5125V16.0769H67.0172V17.8462H60.0626V0.23077Z" fill="#111111"/>
<path d="M69.072 0.23077H72.7074C74.1375 0.134618 75.5587 0.514353 76.7379 1.30769C77.6072 2 78.0024 3.23077 78.0024 4.84616C78.0024 7.07692 77.2911 8.46154 75.7895 8.92308L78.3185 17.6923H75.8686L73.4977 9.46154H71.5219V17.6923H68.993V0.23077H69.072ZM72.5493 7.76923C73.364 7.83458 74.1761 7.61652 74.8412 7.15385C75.3154 6.76923 75.5524 6 75.5524 4.84616C75.5743 4.27296 75.4941 3.7004 75.3154 3.15385C75.1375 2.76166 74.832 2.4373 74.446 2.23077C73.9017 1.98934 73.3042 1.8836 72.7074 1.92308H71.601V7.69231H72.5493V7.76923Z" fill="#111111"/>
<path d="M81.1635 16.4615C80.342 15.1166 79.9564 13.5617 80.0571 12V6.15384C80.0376 5.0391 80.1705 3.92679 80.4522 2.84615C80.7167 2.03863 81.2437 1.33668 81.9538 0.84615C82.8362 0.337746 83.8542 0.0967275 84.8779 0.153842C86.5375 0.153842 87.723 0.538458 88.4342 1.38461C89.2524 2.50191 89.6438 3.86237 89.5407 5.23077V5.84615H87.1698V5.30769C87.1733 4.66346 87.1205 4.0201 87.0117 3.38461C86.9451 2.98303 86.7177 2.62348 86.3795 2.38461C85.9353 2.10082 85.4081 1.96578 84.8779 2C84.3112 1.96465 83.7504 2.12843 83.2973 2.46154C83.1114 2.61401 82.9595 2.80181 82.8507 3.01344C82.742 3.22507 82.6788 3.45608 82.6651 3.6923C82.5609 4.37999 82.5081 5.07411 82.507 5.76923V12.3077C82.4488 13.3038 82.6104 14.3006 82.9812 15.2308C83.2973 15.8462 83.9295 16.0769 84.8779 16.0769C85.2523 16.1223 85.6322 16.0589 85.9697 15.8947C86.3072 15.7304 86.5873 15.4727 86.7746 15.1538C87.1922 14.1811 87.3812 13.1299 87.3278 12.0769V10.8462H85.036V9.07692H89.6197V17.7692H88.0391L87.802 15.7692C87.5948 16.4395 87.1634 17.0231 86.5763 17.4273C85.9892 17.8315 85.2801 18.0331 84.5618 18C83.9088 18.0374 83.2564 17.9164 82.6633 17.6479C82.0702 17.3794 81.5548 16.9717 81.1635 16.4615Z" fill="#111111"/>
<path d="M94.6776 11.6154L90.8052 0.307692H93.1761L95.9421 8.76923L98.6291 0.307692H101L97.1276 11.6154V17.7692H94.7567V11.6154H94.6776Z" fill="#111111"/>
</g>

</g></symbol><symbol id="text-logo-big" viewBox="0 0 129 24"><g fill="none">
<path d="M2.10253 22.0513C0.968358 20.3682 0.405343 18.3503 0.50003 16.3077V7.79487C0.362683 5.73031 0.890444 3.67661 2.00238 1.94872C3.1041 0.615385 4.80676 0 7.31067 0C9.81458 0 11.4171 0.615385 12.4187 1.74359C13.506 3.17255 14.0409 4.96181 13.921 6.76923V8.82051H9.01333V6.46154C9.05297 5.76385 8.95065 5.06533 8.71286 4.41026C8.58576 4.14583 8.38431 3.9264 8.13443 3.78018C7.88455 3.63395 7.59766 3.56763 7.31067 3.58974C6.60958 3.58974 6.10879 3.79487 5.90848 4.30769C5.68191 5.03643 5.58025 5.79984 5.60801 6.5641V17.5385C5.55512 18.2799 5.69327 19.0227 6.00864 19.6923C6.20895 20.2051 6.70973 20.4103 7.41083 20.4103C8.11192 20.4103 8.51255 20.2051 8.71286 19.6923C8.94058 18.9992 9.04242 18.2692 9.01333 17.5385V15.0769H13.921V17.1282C14.0229 18.9651 13.4911 20.7803 12.4187 22.2564C11.4171 23.4872 9.71443 24.1026 7.31067 24.1026C4.90692 24 3.1041 23.3846 2.10253 22.0513Z" fill="#111111"/>
<path d="M19.8302 0.307617H25.5391L29.7457 23.6922H25.1385L24.3372 18.7692H21.0321L20.2308 23.6922H15.5235L19.8302 0.307617ZM23.9366 15.6922L22.7347 6.56403L21.5329 15.6922H23.9366Z" fill="#111111"/>
<path d="M33.2512 4.20505H29.8458V0.307617H41.7645V4.10249H38.3591V23.6922H33.2512V4.20505Z" fill="#111111"/>
<path d="M50.8787 0.307617H59.6925V2.76916H53.9836V10.4615H58.5908V12.8204H53.9836V21.4358H59.6925V23.7948H50.7786V0.307617H50.8787Z" fill="#111111"/>
<path d="M62.2966 0.307617H64.5L71.0102 15.7948V0.307617H73.6142V23.6922H71.6111L65.0008 7.69223V23.6922H62.2966V0.307617Z" fill="#111111"/>
<path d="M76.6189 0.307617H85.4327V2.76916H79.7238V10.4615H84.331V12.8204H79.7238V21.4358H85.4327V23.7948H76.6189V0.307617Z" fill="#111111"/>
<path d="M88.0368 0.3076H92.644C94.4564 0.179397 96.2575 0.685711 97.7519 1.7435C98.8537 2.66657 99.3544 4.3076 99.3544 6.46145C99.3544 9.4358 98.453 11.282 96.5501 11.8973L99.7551 23.5897H96.6502L93.6455 12.6153H91.1416V23.5897H87.9366V0.3076H88.0368ZM92.4437 10.3589C93.4762 10.446 94.5053 10.1553 95.3482 9.53837C95.9491 9.02555 96.2496 7.99991 96.2496 6.46145C96.2774 5.69719 96.1757 4.93378 95.9491 4.20504C95.7237 3.68211 95.3366 3.24964 94.8474 2.97427C94.1576 2.65236 93.4003 2.51137 92.644 2.56401H91.2418V10.2563H92.4437V10.3589Z" fill="#111111"/>
<path d="M103.361 21.9487C102.32 20.1554 101.831 18.0821 101.959 15.9999V8.20507C101.934 6.71875 102.102 5.23567 102.459 3.79481C102.794 2.71811 103.462 1.78218 104.362 1.12815C105.481 0.450275 106.771 0.128917 108.068 0.20507C110.171 0.20507 111.674 0.71789 112.575 1.8461C113.612 3.33582 114.108 5.14977 113.977 6.9743V7.79481H110.973V7.07687C110.977 6.21789 110.91 5.36008 110.772 4.51276C110.688 3.97732 110.4 3.49792 109.971 3.17943C109.408 2.80104 108.74 2.62099 108.068 2.66661C107.35 2.61949 106.639 2.83785 106.065 3.28199C105.829 3.48529 105.637 3.73569 105.499 4.01787C105.361 4.30004 105.281 4.60805 105.264 4.92302C105.132 5.83993 105.065 6.76543 105.063 7.69225V16.4102C104.99 17.7384 105.194 19.0674 105.664 20.3076C106.065 21.1281 106.866 21.4358 108.068 21.4358C108.543 21.4964 109.024 21.4119 109.452 21.1929C109.88 20.9739 110.234 20.6302 110.472 20.2051C111.001 18.9081 111.241 17.5064 111.173 16.1025V14.4615H108.268V12.1025H114.077V23.6923H112.074L111.774 21.0256C111.511 21.9193 110.965 22.6975 110.22 23.2364C109.476 23.7753 108.578 24.0441 107.667 23.9999C106.84 24.0498 106.013 23.8885 105.261 23.5304C104.51 23.1724 103.857 22.6289 103.361 21.9487Z" fill="#111111"/>
<path d="M120.487 15.4871L115.58 0.410156H118.584L122.09 11.6922L125.495 0.410156H128.5L123.592 15.4871V23.6922H120.588V15.4871H120.487Z" fill="#111111"/>
</g></symbol><symbol id="text-logo" viewBox="0 0 118 22"><g fill="none">
<path d="M1.66 20C0.629825 18.4735 0.137249 16.6475 0.26 14.81V7.31C0.130049 5.45899 0.615179 3.61689 1.64 2.07C2.56666 0.876668 4.15 0.283336 6.39 0.290003C8.63 0.29667 10.1467 0.820003 10.94 1.86C11.9073 3.14879 12.3793 4.74228 12.27 6.35V8.11H8.13V6.2C8.12442 5.69745 8.08096 5.19603 8 4.7C7.94994 4.34092 7.78507 4.00766 7.53 3.75C7.37254 3.61497 7.18973 3.5127 6.99227 3.44917C6.79481 3.38563 6.58665 3.36212 6.38 3.38C6.0832 3.33571 5.77997 3.38395 5.51157 3.51815C5.24317 3.65235 5.02264 3.86599 4.88 4.13C4.61706 4.83228 4.50134 5.58112 4.54 6.33V15.85C4.49438 16.6038 4.62803 17.3578 4.93 18.05C5.07428 18.2997 5.28838 18.5019 5.54598 18.6315C5.80358 18.7612 6.09346 18.8128 6.38 18.78C6.66155 18.8198 6.9485 18.7697 7.1999 18.6368C7.45129 18.5039 7.65431 18.2951 7.78 18.04C8.02189 17.3364 8.12711 16.5931 8.08999 15.85V13.85H12.23V15.58C12.3519 17.2114 11.9184 18.8361 11 20.19C10.12 21.29 8.6 21.83 6.44 21.83C4.28 21.83 2.59 21.23 1.66 20Z" fill="#111111"/>
<path d="M17.91 0.580002H22.65L26.65 21.58H22.71L22 16.94H18.68L17.88 21.55H13.88L17.91 0.580002ZM21.56 14.3L20.3 5.86L19.05 14.3H21.56Z" fill="#111111"/>
<path d="M29.72 3.74H26.48V0.580002H37.2V3.74H34V21.55H29.71L29.72 3.74Z" fill="#111111"/>
<path d="M45.61 0.580002H53.74V2.76H48.54V9.69H52.76V11.76H48.54V19.45H53.79V21.55H45.61V0.580002Z" fill="#444444"/>
<path d="M56.15 0.580002H58.15L64.15 14.51V0.580002H66.59V21.58H64.72L58.72 7.26V21.55H56.24L56.15 0.580002Z" fill="#444444"/>
<path d="M69.82 0.580002H77.94V2.76H72.74V9.69H77V11.76H72.78V19.45H78V21.55H69.82V0.580002Z" fill="#444444"/>
<path d="M80.35 0.579998H84.57C86.233 0.446176 87.8892 0.910749 89.24 1.89C90.24 2.76 90.73 4.18 90.73 6.15C90.73 8.81666 89.8667 10.4467 88.14 11.04L91.14 21.55H88.3L85.55 11.71H83.28V21.55H80.35V0.579998ZM84.35 9.58C85.3134 9.67321 86.2767 9.40205 87.05 8.82C87.3643 8.44808 87.5991 8.01581 87.7401 7.54976C87.8812 7.08372 87.9253 6.59375 87.87 6.11C87.8901 5.43156 87.792 4.75479 87.58 4.11C87.494 3.87225 87.3612 3.65416 87.1895 3.46865C87.0177 3.28314 86.8104 3.13398 86.58 3.03C85.9308 2.76366 85.2308 2.64414 84.53 2.68H83.24V9.62L84.35 9.58Z" fill="#444444"/>
<path d="M94.67 20C93.7141 18.3866 93.2712 16.5208 93.4 14.65V7.65C93.3655 6.29916 93.5341 4.9508 93.9 3.65C94.1888 2.67205 94.8026 1.8219 95.64 1.24C96.651 0.630745 97.8212 0.338179 99 0.4C99.7625 0.327488 100.532 0.422365 101.254 0.678C101.976 0.933634 102.633 1.34386 103.18 1.88C104.139 3.22404 104.593 4.864 104.46 6.51V7.29H101.71V6.64C101.729 5.86257 101.668 5.08524 101.53 4.32C101.439 3.82957 101.168 3.39088 100.77 3.09C100.251 2.78364 99.6515 2.64077 99.05 2.68C98.3968 2.62412 97.7475 2.825 97.24 3.24C96.8253 3.63351 96.5542 4.15453 96.47 4.72C96.3433 5.54373 96.2865 6.37669 96.3 7.21V15C96.2206 16.1837 96.4228 17.3695 96.89 18.46C97.1613 18.7954 97.5058 19.0643 97.897 19.2461C98.2881 19.428 98.7157 19.5181 99.147 19.5094C99.5783 19.5007 100.002 19.3935 100.385 19.196C100.769 18.9986 101.102 18.716 101.36 18.37C101.842 17.2166 102.051 15.9674 101.97 14.72V13.24H99.31V11.17H104.61V21.55H102.8L102.51 19.14C102.281 19.9407 101.787 20.6403 101.11 21.125C100.433 21.6098 99.6118 21.8512 98.78 21.81C97.9979 21.879 97.2111 21.7492 96.4926 21.4328C95.7741 21.1163 95.1471 20.6235 94.67 20Z" fill="#444444"/>
<path d="M110.69 14.15L106.16 0.580002H108.88L112.09 10.7L115.25 0.580002H118L113.5 14.15V21.55H110.7L110.69 14.15Z" fill="#444444"/>
</g></symbol></svg>