<svg xmlns="http://www.w3.org/2000/svg"><style>:root svg:not(:target){display:none}</style><svg viewBox="0 0 32 12" fill="none" id="arrow-long"><line y1="6" x2="26" y2="6" stroke="black" stroke-width="2"></line><path d="M32 6L25.25 11.1962L25.25 0.803848L32 6Z" fill="black"></path></svg><svg viewBox="0 0 24 12" fill="none" id="arrow-short"><line y1="6" x2="18" y2="6" stroke="black" stroke-width="2"></line><path d="M24 6L17.25 11.1962L17.25 0.803848L24 6Z" fill="black"></path></svg><svg viewBox="0 0 26 31" fill="none" id="clock-icon"><path d="M5.53799 0C4.47504 0 4.47504 1.5831 5.53799 1.5831H12.1815V3.18731C5.37855 3.62002 0 9.41417 0 16.4854C0 20.4959 1.74325 24.1159 4.4963 26.5539C4.97463 26.976 5.03841 27.7254 4.60259 28.1897L3.07194 29.7412C2.32787 30.4272 3.43334 31.4931 4.10301 30.7438L6.10136 28.7069C6.45214 28.3692 6.97298 28.2847 7.4088 28.4958C9.12736 29.3397 11.0169 29.784 12.9341 29.795C14.8513 29.8059 16.7459 29.3833 18.4742 28.5591C18.8993 28.348 19.4308 28.4325 19.771 28.7702L21.7055 30.7438C22.3858 31.377 23.3638 30.4272 22.7472 29.7412L21.3016 28.2636C20.8552 27.8098 20.919 27.0605 21.4079 26.6277C22.8584 25.3585 24.0186 23.7959 24.8106 22.0447C25.6026 20.2936 26.0081 18.3944 25.9999 16.4748C25.9999 9.40362 20.5894 3.59891 13.7759 3.18731V1.5831H20.4194C21.4823 1.5831 21.4823 0 20.4194 0H5.53799ZM1.43499 16.4748C1.43499 9.94187 6.61158 4.65431 12.9999 4.65431C19.3777 4.65431 24.5543 9.94187 24.5543 16.4748C24.5543 23.0183 19.3777 28.3164 12.9999 28.3164C6.62221 28.3164 1.43499 23.0183 1.43499 16.4748ZM12.1921 8.37988C12.1921 7.28226 13.8503 7.28226 13.8503 8.37988V17.0131C13.8503 17.237 13.7607 17.4517 13.6012 17.6101C13.4418 17.7684 13.2255 17.8574 12.9999 17.8574C12.7875 17.8574 12.5836 17.7743 12.4324 17.6262C12.2812 17.478 12.1949 17.2767 12.1921 17.0658V8.37988ZM7.21746 10.9973C7.52475 10.9973 7.81945 10.8761 8.03673 10.6603C8.25402 10.4446 8.37608 10.152 8.37608 9.84688C8.37608 9.54178 8.25402 9.24918 8.03673 9.03344C7.81945 8.8177 7.52475 8.6965 7.21746 8.6965C6.93069 8.72386 6.66447 8.85633 6.47075 9.06805C6.27702 9.27977 6.16969 9.55556 6.16969 9.84161C6.16969 10.1277 6.27702 10.4034 6.47075 10.6152C6.66447 10.8269 6.93069 10.9593 7.21746 10.9867V10.9973ZM18.7718 10.9973C19.0791 10.9973 19.3738 10.8761 19.5911 10.6603C19.8083 10.4446 19.9304 10.152 19.9304 9.84688C19.9304 9.54178 19.8083 9.24918 19.5911 9.03344C19.3738 8.8177 19.0791 8.6965 18.7718 8.6965C18.485 8.72386 18.2188 8.85633 18.0251 9.06805C17.8313 9.27977 17.724 9.55556 17.724 9.84161C17.724 10.1277 17.8313 10.4034 18.0251 10.6152C18.2188 10.8269 18.485 10.9593 18.7718 10.9867V10.9973ZM8.37608 23.5882C8.37608 25.1185 6.05884 25.1185 6.05884 23.5882C6.05884 22.0579 8.37608 22.0579 8.37608 23.5882ZM12.9999 27.0288C13.1607 27.0441 13.3229 27.0259 13.4762 26.9754C13.6294 26.9248 13.7703 26.843 13.8899 26.7352C14.0094 26.6273 14.1049 26.4959 14.1703 26.3493C14.2356 26.2026 14.2694 26.044 14.2694 25.8837C14.2694 25.7233 14.2356 25.5648 14.1703 25.4181C14.1049 25.2715 14.0094 25.14 13.8899 25.0322C13.7703 24.9244 13.6294 24.8426 13.4762 24.792C13.3229 24.7414 13.1607 24.7232 12.9999 24.7386C12.7132 24.7659 12.4469 24.8984 12.2532 25.1101C12.0595 25.3219 11.9522 25.5976 11.9522 25.8837C11.9522 26.1697 12.0595 26.4455 12.2532 26.6572C12.4469 26.869 12.7132 27.0014 12.9999 27.0288ZM4.91085 16.6437C4.9263 16.8033 4.90797 16.9643 4.85704 17.1165C4.80611 17.2687 4.72371 17.4086 4.61511 17.5273C4.50651 17.646 4.37413 17.7408 4.22644 17.8057C4.07876 17.8706 3.91904 17.9041 3.75755 17.9041C3.59605 17.9041 3.43633 17.8706 3.28865 17.8057C3.14097 17.7408 3.00858 17.646 2.89998 17.5273C2.79138 17.4086 2.70898 17.2687 2.65805 17.1165C2.60712 16.9643 2.58879 16.8033 2.60424 16.6437C2.6318 16.3589 2.76522 16.0946 2.97845 15.9023C3.19169 15.7099 3.46945 15.6033 3.75755 15.6033C4.04564 15.6033 4.3234 15.7099 4.53664 15.9023C4.74987 16.0946 4.88329 16.3589 4.91085 16.6437ZM22.237 17.794C22.3978 17.8094 22.56 17.7912 22.7132 17.7406C22.8665 17.6901 23.0074 17.6082 23.127 17.5004C23.2465 17.3926 23.342 17.2611 23.4074 17.1145C23.4727 16.9679 23.5065 16.8093 23.5065 16.6489C23.5065 16.4886 23.4727 16.33 23.4074 16.1834C23.342 16.0367 23.2465 15.9053 23.127 15.7975C23.0074 15.6896 22.8665 15.6078 22.7132 15.5573C22.56 15.5067 22.3978 15.4885 22.237 15.5038C21.9502 15.5312 21.684 15.6637 21.4903 15.8754C21.2966 16.0871 21.1892 16.3629 21.1892 16.6489C21.1892 16.935 21.2966 17.2108 21.4903 17.4225C21.684 17.6342 21.9502 17.7667 22.237 17.794ZM19.9304 23.5987C19.9304 25.1185 17.6132 25.1185 17.6132 23.5882C17.6132 22.0579 19.9304 22.0579 19.9304 23.5882V23.5987Z" fill="white"></path></svg><svg viewBox="0 0 25 30" fill="none" id="food-icon"><path fill-rule="evenodd" clip-rule="evenodd" d="M18.6173 0.0761497C18.991 -0.0786313 19.4211 0.00692445 19.7071 0.292922C20.6156 1.20142 21.8038 3.17065 22.7659 6.21082C23.7373 9.28039 24.5 13.5081 24.5 19C24.5 19.5523 24.0523 20 23.5 20H20V29C20 29.5523 19.5523 30 19 30C18.4477 30 18 29.5523 18 29V1.00003C18 0.595567 18.2436 0.230931 18.6173 0.0761497ZM20 18H22.4912C22.4053 13.1836 21.7051 9.48755 20.8591 6.81424C20.5807 5.93457 20.2885 5.1715 20 4.51895V18Z" fill="white"></path><path fill-rule="evenodd" clip-rule="evenodd" d="M6 0C6.55228 0 7 0.447715 7 1V29C7 29.5523 6.55228 30 6 30C5.44772 30 5 29.5523 5 29V1C5 0.447715 5.44772 0 6 0Z" fill="white"></path><path fill-rule="evenodd" clip-rule="evenodd" d="M1.5 0C2.05228 0 2.5 0.447715 2.5 1V6.5C2.5 7.05686 2.69203 7.81518 3.20088 8.41656C3.68001 8.98281 4.51446 9.5 5.99993 9.5C6.55221 9.5 6.99993 9.94771 6.99993 10.5C6.99993 11.0523 6.55221 11.5 5.99993 11.5C3.98547 11.5 2.56995 10.7672 1.6741 9.70844C0.807973 8.68482 0.5 7.44314 0.5 6.5V1C0.5 0.447715 0.947715 0 1.5 0Z" fill="white"></path><path fill-rule="evenodd" clip-rule="evenodd" d="M10.5 0C9.94771 0 9.5 0.447715 9.5 1V6.5C9.5 7.05686 9.30797 7.81518 8.79912 8.41656C8.31999 8.98281 7.4854 9.5 5.99993 9.5C5.44765 9.5 5.00007 9.94771 5.00007 10.5C5.00007 11.0523 5.44765 11.5 5.99993 11.5C8.01439 11.5 9.43005 10.7672 10.3259 9.70844C11.192 8.68482 11.5 7.44314 11.5 6.5V1C11.5 0.447715 11.0523 0 10.5 0Z" fill="white"></path></svg><svg viewBox="0 0 80 84" fill="none" id="gift-icon"><path d="M65.6571 36.7572H14.3908C12.5914 36.7572 11.1277 35.2941 11.1277 33.4953V23.7228C11.1277 21.9241 12.5914 20.4603 14.3908 20.4603H65.6564C67.4552 20.4603 68.9183 21.9241 68.9183 23.7228V33.4959C68.9189 35.2941 67.4558 36.7572 65.6571 36.7572ZM14.3908 22.9603C13.9771 22.9603 13.6277 23.3097 13.6277 23.7228V33.4959C13.6277 33.9159 13.9702 34.2578 14.3908 34.2578H65.6564C66.0764 34.2578 66.4183 33.9159 66.4183 33.4959V23.7228C66.4183 23.3091 66.0689 22.9603 65.6564 22.9603H14.3908Z" fill="white"></path><path d="M58.5075 70.236H21.5375C18.0737 70.236 15.2556 67.4185 15.2556 63.9541V35.5072C15.2556 34.8172 15.8156 34.2572 16.5056 34.2572C17.1956 34.2572 17.7556 34.8172 17.7556 35.5072V63.9541C17.7556 66.0397 19.4525 67.736 21.5375 67.736H58.5075C60.5919 67.736 62.2881 66.0397 62.2881 63.9541V35.5072C62.2881 34.8172 62.8481 34.2572 63.5381 34.2572C64.2281 34.2572 64.7881 34.8172 64.7881 35.5072V63.9541C64.7881 67.4185 61.9706 70.236 58.5075 70.236Z" fill="white"></path><path d="M40.0232 70.236C39.3332 70.236 38.7732 69.6766 38.7732 68.986V35.5072C38.7732 34.8172 39.3332 34.2572 40.0232 34.2572C40.7132 34.2572 41.2732 34.8172 41.2732 35.5072V68.9853C41.2732 69.6766 40.7138 70.236 40.0232 70.236Z" fill="white"></path><path d="M24.4218 22.956C20.5093 20.836 19.0493 15.9285 21.1674 12.0154C23.2843 8.10414 28.1911 6.64352 32.1055 8.75977C38.0686 11.9898 41.2886 21.001 41.4224 21.3829L39.0643 22.2123C39.0343 22.1273 36.0261 13.7266 30.9161 10.9585C28.213 9.49727 24.8268 10.506 23.3661 13.2054C21.9043 15.9073 22.9118 19.2948 25.6136 20.7579L24.4218 22.956Z" fill="white"></path><path d="M55.6218 22.956L54.4318 20.7572C55.7411 20.0478 56.6955 18.8722 57.1205 17.4466C57.5449 16.0203 57.388 14.5141 56.6786 13.206C55.9711 11.8966 54.7961 10.9428 53.3705 10.5185C51.9443 10.0941 50.4393 10.2503 49.1305 10.9585C44.0205 13.726 41.0124 22.1266 40.9824 22.2116L38.6243 21.3822C38.758 21.0003 41.9774 11.9891 47.9405 8.7597C49.8355 7.73345 52.0186 7.5072 54.0836 8.1222C56.1505 8.73658 57.8524 10.1197 58.878 12.0153C59.9049 13.9103 60.1318 16.0922 59.5168 18.1591C58.9011 20.2253 57.518 21.9285 55.6218 22.956Z" fill="white"></path><path d="M63.5381 53.4972H16.5056C15.8156 53.4972 15.2556 52.9372 15.2556 52.2472C15.2556 51.5572 15.8156 50.9972 16.5056 50.9972H63.5381C64.2281 50.9972 64.7881 51.5572 64.7881 52.2472C64.7881 52.9372 64.2287 53.4972 63.5381 53.4972Z" fill="white"></path></svg><svg viewBox="0 0 27 34" fill="none" id="html-icon"><path d="M13.6426 0.0157537L13.5 0L0 1.40733V26.0129L13.5 34L27 26.0129V1.40733L13.6426 0.0157537ZM25.2344 25.0151L13.5 31.9573L1.76561 25.0151V14.9293L13.4507 21.8451L13.4701 23.0984L5.45351 18.3548L5.44295 19.5801L13.4894 24.3885L13.5088 25.675L5.46408 20.9174L5.45351 22.1427L13.5 26.9511L21.6239 22.1182V20.8929V16.909L25.2432 14.7595L25.2344 25.0151ZM25.2344 13.4519L22.0147 15.3319L20.5325 16.2071L13.4666 12.0201L13.456 13.2454L19.4957 16.818L19.4429 16.8495L19.3126 16.9247L18.4536 17.4166L13.4666 14.4689L13.456 15.6942L17.3921 18.0222L16.4591 18.6314L16.438 18.6436L13.4666 16.902L13.456 18.1273L15.4029 19.2615L13.4155 20.4483L1.7973 13.5762L13.4349 6.61831L25.2344 13.4519ZM25.2344 12.2266L13.4401 5.31075L1.76561 12.2196V2.9897L13.5 1.76442L25.2344 2.9897V12.2266Z" fill="#666666"></path></svg><svg viewBox="0 0 26 28" fill="none" id="leaf-icon"><path d="M25.3438 0.767C25.2434 0.317 24.8647 0 24.4325 0C24.4306 0 24.4288 0 24.4269 0C19.4891 0.033 7.48156 0.916 2.63375 8.38C0.115624 12.258 -0.100938 17.293 1.98969 23.345C2.00562 23.392 2.03844 23.424 2.06 23.467C1.31281 25.44 1.02312 26.753 1.01562 26.79C0.906875 27.33 1.23031 27.862 1.73656 27.978C1.80219 27.993 1.86781 28 1.93344 28C2.36562 28 2.75469 27.679 2.84937 27.21C2.86906 27.108 5.25781 16.837 13.7028 10.832C14.1341 10.526 14.2503 9.905 13.9625 9.445C13.6747 8.985 13.0934 8.86 12.6622 9.168C7.87344 12.573 4.92406 17.176 3.18969 20.824C1.94844 16.246 2.27375 12.447 4.17594 9.519C7.91937 3.755 16.7984 2.365 22.1581 2.071C21.005 3.872 19.745 7.174 19.745 13C19.745 16.12 18.9153 18.522 17.2803 20.14C14.6591 22.731 10.4009 22.974 7.28656 22.724C6.76906 22.679 6.32 23.095 6.28062 23.646C6.24125 24.196 6.62844 24.676 7.14406 24.718C7.7675 24.769 8.43313 24.8 9.125 24.8C12.2956 24.8 15.9941 24.137 18.5544 21.606C20.5888 19.595 21.62 16.7 21.62 13.001C21.62 3.902 24.8356 1.905 24.8516 1.896C25.2416 1.687 25.4459 1.219 25.3438 0.767Z" fill="white"></path></svg><svg viewBox="0 0 71 59" fill="none" id="logo-desktop"><path d="M59.8825 23.8063C58.1585 19.7092 55.3821 16.1318 51.83 13.4305C48.2778 10.7293 44.074 8.99857 39.6374 8.41088C35.2008 7.82319 30.6864 8.39905 26.5441 10.0811C22.4017 11.7631 18.7762 14.4925 16.0287 17.9973C13.2812 21.5021 11.5077 25.6599 10.885 30.0564C10.2622 34.4529 10.812 38.9344 12.4795 43.0545C14.147 47.1745 16.874 50.7892 20.3887 53.5382C23.9034 56.2872 28.083 58.0746 32.5111 58.7223C31.9311 56.6491 31.3411 54.3578 30.8211 51.9275C32.3339 52.9009 33.9262 53.747 35.5813 54.457C35.5813 54.457 35.7013 56.5995 35.8613 58.9901C37.6496 59.0207 39.4362 58.8644 41.1916 58.5239C41.1462 58.2746 41.1462 58.0193 41.1916 57.77C41.4816 55.9151 42.2816 52.5723 42.4416 50.4198C43.595 49.3498 44.5734 48.1082 45.3418 46.7397L45.2818 47.1762C44.7317 51.4018 43.5817 55.9151 42.8817 57.1649C42.655 57.5786 42.3761 57.962 42.0516 58.3056C45.6716 57.4633 49.0636 55.8502 51.9924 53.5781C54.9212 51.3059 57.3168 48.4292 59.013 45.1473C60.7093 41.8653 61.6656 38.2568 61.8158 34.5717C61.9659 30.8867 61.3062 27.2133 59.8825 23.8063ZM58.4124 27.5657C57.9724 27.9923 57.0624 28.2799 56.9123 26.9904C56.7623 25.7009 56.7223 24.7983 56.7223 24.7983C56.7223 24.7983 54.7922 21.3959 54.0722 21.3563C53.3522 21.3166 48.2419 24.7983 46.8918 26.3159C45.7218 27.5955 45.4918 27.5062 45.4918 29.7579C45.4918 31.4541 45.7118 37.862 45.5918 42.7621L37.4414 44.9146C34.8796 45.6438 32.2744 46.2137 29.641 46.6207L28.6409 40.8378H28.5009L25.9308 27.774C25.9308 27.774 22.1206 26.3457 20.7206 25.9588C20.0632 25.6735 19.3372 25.5808 18.6284 25.6915C17.9196 25.8023 17.2575 26.1118 16.7204 26.5837C16.1723 27.0597 15.7342 27.6471 15.4356 28.3061C15.1371 28.9651 14.9852 29.6802 14.9903 30.4027C15.2017 30.8637 15.3626 31.3459 15.4703 31.841C15.5203 32.3171 14.2702 32.2675 13.4702 32.2675C12.6702 32.2675 12.5502 30.8391 13.1802 29.1627C13.6717 27.8737 14.2809 26.632 15.0003 25.4529C15.5413 24.3997 16.2392 23.4333 17.0704 22.5862C17.0704 22.5862 17.2104 22.249 18.3204 22.3482C19.4305 22.4474 25.6008 22.7747 25.6008 22.7747L25.6508 20.523C32.3575 19.6045 39.1216 19.1603 45.8918 19.1938C45.8918 19.7989 45.8918 20.404 45.8918 21.0091C48.4562 19.8483 51.2175 19.1754 54.0322 19.0252C54.1828 19.0214 54.332 19.0548 54.4664 19.1223C54.6008 19.1898 54.7162 19.2894 54.8022 19.4121C55.1423 19.8386 57.2124 22.3879 57.4524 22.7549C58.1246 23.7078 58.7359 24.7017 59.2825 25.7307C59.0951 26.3822 58.8012 26.9988 58.4124 27.5558V27.5657Z" fill="#FDC305"></path><path d="M56.4628 21.4951C56.9329 22.0903 57.3429 22.616 57.4629 22.7747C58.1351 23.7277 58.7464 24.7215 59.293 25.7505C59.1027 26.3806 58.8124 26.9767 58.4329 27.5161C57.9929 27.9427 57.0829 28.2303 56.9329 26.9408C56.7829 25.6513 56.7229 24.7983 56.7229 24.7983C56.7229 24.7983 54.7928 21.3959 54.0727 21.3563C53.3527 21.3166 48.2424 24.7983 46.8924 26.3159C45.7223 27.5955 45.4923 27.5062 45.4923 29.7579C45.4923 31.2458 45.6623 36.3542 45.6223 40.8973C47.4324 41.0957 50.0925 41.5916 50.8926 42.7621C50.8926 42.7621 50.6026 35.64 58.703 39.3697C58.703 39.3697 58.983 29.6587 70.1635 32.1485C66.3628 27.7223 61.7035 24.0994 56.4628 21.4951Z" fill="#F06351"></path><path d="M45.9323 19.1938C45.9729 13.6973 45.5043 8.2087 44.5322 2.79724C44.5322 2.79724 44.3822 1.50773 43.6622 2.55918C43.068 3.81617 42.6636 5.15308 42.4621 6.5269C38.1871 6.25483 33.896 6.36771 29.6415 6.86415C28.8214 4.13635 27.4214 2.89643 26.7513 3.22377C26.0813 3.55111 26.0013 6.4773 26.0013 6.4773L25.6713 20.523C32.3846 19.6036 39.1554 19.1594 45.9323 19.1938Z" fill="#F06351"></path><path d="M45.3515 46.7397C45.4815 45.6784 45.5515 44.2698 45.5915 42.7125L37.4415 44.865C34.8809 45.611 32.2758 46.1974 29.6415 46.6207L30.7515 51.5804C30.7515 51.6895 30.7515 51.7986 30.8215 51.9077C32.3342 52.8811 33.9265 53.7272 35.5815 54.4371C38.0002 53.2903 40.3038 51.9186 42.4615 50.3404V50.4C43.6096 49.3352 44.5845 48.1005 45.3515 46.7397Z" fill="#E55645"></path><path d="M32.0016 16.0891C31.9516 15.9899 33.0016 16.7636 33.4116 17.0017C33.8216 17.2397 34.0216 17.4183 34.0216 17.5869C34.0216 17.7556 33.7616 17.9242 33.4016 17.9242C33.0416 17.9242 32.4816 17.8051 32.4016 17.6663C32.3216 17.5274 33.0016 17.6663 33.3416 17.6663H33.6316C33.0159 17.2195 32.4672 16.6885 32.0016 16.0891Z" fill="black"></path><path d="M39.502 16.1982C39.502 16.1982 38.502 17.4679 38.412 17.5274C38.322 17.5869 38.2419 17.8647 38.6019 17.8151C39.0152 17.7539 39.4231 17.661 39.8219 17.5373C39.9319 17.4778 39.892 17.3389 39.702 17.3588C39.512 17.3786 39.022 17.4084 38.702 17.4679L39.5519 16.2081C39.5519 16.2081 39.582 16.0891 39.502 16.1982Z" fill="black"></path><path d="M36.3617 22.2589C36.8253 22.0563 37.2084 21.7077 37.4517 21.267C37.7317 20.6123 37.4517 20.3643 37.0117 20.275C36.4064 20.1655 35.7817 20.2859 35.2617 20.6123C34.8717 20.9793 34.9217 21.3364 35.2617 21.6042C35.5995 21.867 35.9691 22.0869 36.3617 22.2589Z" fill="black"></path><path d="M36.0016 23.5087C35.8868 23.7337 35.7308 23.9355 35.5416 24.1039C35.2568 24.3312 34.9067 24.4631 34.5416 24.4808C33.991 24.5344 33.4405 24.3784 33.0016 24.0444C32.8 23.9274 32.6206 23.7764 32.4716 23.598C32.3715 23.49 32.2486 23.4053 32.1116 23.35C32.1116 23.35 32.8616 27.4269 34.6816 28.0815C36.5016 28.7362 36.8416 27.3277 36.8916 26.9507C36.9525 25.8218 36.6666 24.7011 36.0716 23.7369C36.0716 23.4393 36.0516 23.6377 36.0016 23.5087Z" fill="#F06351"></path><path d="M34.3015 24.6395C33.8335 24.5728 33.384 24.4127 32.9801 24.1689C32.5763 23.9251 32.2263 23.6027 31.9515 23.2211C31.9269 23.1938 31.9133 23.1585 31.9133 23.1219C31.9133 23.0853 31.9269 23.05 31.9515 23.0227C31.9646 23.0095 31.9801 22.999 31.9973 22.9919C32.0145 22.9847 32.0329 22.981 32.0515 22.981C32.0702 22.981 32.0886 22.9847 32.1058 22.9919C32.1229 22.999 32.1385 23.0095 32.1515 23.0227C32.399 23.3671 32.7129 23.6593 33.0751 23.8823C33.4374 24.1054 33.8406 24.2549 34.2615 24.3221C34.5945 24.2973 34.9168 24.1945 35.2019 24.022C35.487 23.8496 35.7268 23.6125 35.9015 23.3302L36.0415 23.1417L36.1415 23.36C36.1415 23.36 36.5215 24.1138 37.1415 24.1535C37.7615 24.1932 38.2015 23.7369 38.7715 22.8739C38.7927 22.8423 38.8257 22.8204 38.8632 22.813C38.9007 22.8055 38.9397 22.8132 38.9715 22.8342C39.0034 22.8553 39.0254 22.888 39.0329 22.9252C39.0404 22.9624 39.0327 23.001 39.0115 23.0326C38.3449 24.0047 37.7149 24.4709 37.1215 24.4312C36.8922 24.4011 36.6726 24.3204 36.4788 24.1951C36.285 24.0698 36.1219 23.9031 36.0015 23.7071C35.8059 23.9781 35.5518 24.2025 35.2577 24.3638C34.9636 24.5251 34.6369 24.6193 34.3015 24.6395Z" fill="black"></path><path d="M36.2616 37.9909C38.3327 37.9909 40.0116 36.3255 40.0116 34.2712C40.0116 32.2168 38.3327 30.5514 36.2616 30.5514C34.1905 30.5514 32.5116 32.2168 32.5116 34.2712C32.5116 36.3255 34.1905 37.9909 36.2616 37.9909Z" fill="#FDC305"></path><path d="M41.2316 31.2458L38.1016 32.5452L39.2516 26.9607L31.7516 36.6419L34.8816 35.3425L33.7316 40.937L41.2316 31.2458ZM33.8416 35.0449L38.0016 29.6786L37.1916 33.6463L39.1916 32.8329L35.0016 38.2092L35.8116 34.2414L33.8416 35.0449Z" fill="#111111"></path><path d="M32.4415 33.5868C33.0601 33.5868 33.5615 33.0894 33.5615 32.4758C33.5615 31.8622 33.0601 31.3648 32.4415 31.3648C31.823 31.3648 31.3215 31.8622 31.3215 32.4758C31.3215 33.0894 31.823 33.5868 32.4415 33.5868Z" fill="#111111"></path><path d="M38.9619 37.614C39.3982 37.614 39.7519 37.2631 39.7519 36.8304C39.7519 36.3976 39.3982 36.0467 38.9619 36.0467C38.5256 36.0467 38.1719 36.3976 38.1719 36.8304C38.1719 37.2631 38.5256 37.614 38.9619 37.614Z" fill="#111111"></path><path d="M39.9219 35.4615C40.1152 35.4615 40.2719 35.3061 40.2719 35.1143C40.2719 34.9226 40.1152 34.7672 39.9219 34.7672C39.7286 34.7672 39.5719 34.9226 39.5719 35.1143C39.5719 35.3061 39.7286 35.4615 39.9219 35.4615Z" fill="#111111"></path><path d="M45.8822 20.9892C44.077 22.6034 42.3768 24.3295 40.792 26.1572C39.2133 27.9717 37.4318 29.6023 35.4817 31.0177C35.2617 30.4919 33.8516 29.5099 33.8516 29.5099C33.8516 29.5099 30.7115 27.3773 28.6514 25.7009C27.5377 24.7809 26.4886 23.7867 25.5112 22.7251L23.5111 22.616C26.3983 26.7991 30.628 29.8897 35.5117 31.3847C36.3717 31.2458 38.7919 29.5298 40.602 28.1311C42.7434 26.3247 44.7489 24.3654 46.6022 22.2688C47.1004 21.6816 47.4867 21.0094 47.7423 20.285C46.6023 20.6619 45.8822 20.9892 45.8822 20.9892Z" fill="#F06351"></path><path d="M65.2227 3.47176L56.7627 12.8356L55.5427 10.8616L63.6927 0L65.2227 3.47176Z" fill="#FDC305"></path><path d="M62.6531 17.1207L68.1931 13.0439L67.4131 9.33406L62.0131 14.1052L62.6531 17.1207Z" fill="#FDC305"></path><path d="M59.923 48.9716L66.053 52.1259L69.063 49.8048L62.373 47.077L59.923 48.9716Z" fill="#FDC305"></path><path d="M1.94995 5.92182L5.01995 2.58894L14.31 11.5163L13.09 13.7779L1.94995 5.92182Z" fill="#FDC305"></path><path d="M7.38003 16.1486L2.68003 13.0439L0.280029 16.8826L5.43003 19.2633L7.38003 16.1486Z" fill="#FDC305"></path><path d="M13.91 52.1259L9.35999 55.4489L12.16 59L16.18 55.0124L13.91 52.1259Z" fill="#FDC305"></path><path d="M25.9313 27.774C25.9313 27.774 22.1211 26.3457 20.721 25.9588C20.0636 25.6735 19.3377 25.5808 18.6289 25.6915C17.9201 25.8023 17.258 26.1118 16.7208 26.5837C16.1728 27.0597 15.7346 27.6471 15.4361 28.3061C15.1375 28.9651 14.9856 29.6802 14.9907 30.4027C15.2021 30.8637 15.3631 31.3459 15.4708 31.841C15.5208 32.3171 14.2707 32.2675 13.4707 32.2675C12.6706 32.2675 12.5506 30.8391 13.1807 29.1627C13.6722 27.8737 14.2814 26.632 15.0007 25.4529C9.55047 28.27 0 34.7771 0 34.7771C2.73182 34.6137 5.47292 34.6933 8.1904 35.0151C13.4407 35.5409 13.1907 39.6474 13.1907 39.6474C15.0373 39.1425 16.9192 38.7745 18.8209 38.5464C20.941 38.4075 21.091 40.6493 21.091 40.6493L21.6211 44.4781C22.4259 43.6145 23.3134 42.8305 24.2712 42.1372C25.5057 41.157 27.0776 40.6942 28.6514 40.8477L25.9313 27.774Z" fill="#F06351"></path></svg><svg viewBox="0 0 34 38" fill="none" id="logo-mobile"><g clip-path="url(#logo-mobile_0)"><path d="M6.07 20.72V18.46C12.7536 17.5423 19.4937 17.0979 26.24 17.13C26.24 17.73 26.24 18.34 26.18 18.95C28.0976 18.099 30.1128 17.4877 32.18 17.13C30.8625 13.722 28.4618 10.8412 25.3471 8.93087C22.2325 7.02052 18.5764 6.1864 14.9414 6.55683C11.3064 6.92727 7.89379 8.48172 5.22852 10.9811C2.56325 13.4804 0.792971 16.7863 0.190002 20.39L6.07 20.72Z" fill="#FDC305"></path><path d="M27.24 24.23C26.08 25.51 25.85 25.43 25.85 27.68C25.85 28.59 25.85 32.58 25.85 36.86C28.1425 35.346 30.0245 33.2879 31.328 30.8694C32.6315 28.4509 33.3158 25.7474 33.32 23C33.3068 21.9591 33.1997 20.9216 33 19.9C30.9282 21.1295 28.9968 22.5814 27.24 24.23Z" fill="#FDC305"></path><path d="M6.36 25.72C6.36 25.72 2.57 24.28 1.17 23.89C0.787067 23.7693 0.396097 23.6757 0 23.61C0.108395 26.496 0.965588 29.3041 2.48739 31.7586C4.00919 34.2131 6.14326 36.2296 8.68 37.61L6.36 25.72Z" fill="#FDC305"></path><path d="M26.29 17.12C26.3307 11.5986 25.862 6.08528 24.89 0.65C24.89 0.65 24.75 -0.64 24 0.41C23.4109 1.65814 23.0067 2.98539 22.8 4.35C18.5418 4.07577 14.2675 4.18957 10.03 4.69C9.24 2 7.85 0.75 7.18 1C6.51 1.25 6.46 4.31 6.46 4.31L6.13 18.41C12.8113 17.506 19.548 17.0749 26.29 17.12Z" fill="#F06351"></path><path d="M12.41 14C12.41 13.91 13.41 14.68 13.82 14.92C14.23 15.16 14.43 15.34 14.43 15.51C14.43 15.68 14.16 15.85 13.8 15.85C13.44 15.85 12.89 15.73 12.8 15.58H13.74H14.03C13.4207 15.1294 12.8757 14.5978 12.41 14Z" fill="black"></path><path d="M19.89 14.11L18.8 15.44C18.8 15.5 18.63 15.79 18.98 15.74C19.3942 15.6783 19.8023 15.5812 20.2 15.45C20.31 15.45 20.27 15.26 20.09 15.28C19.91 15.3 19.4 15.33 19.09 15.39L19.93 14.13C19.93 14.13 20 14 19.89 14.11Z" fill="black"></path><path d="M16.75 20.2C17.2135 19.9958 17.5967 19.6443 17.84 19.2C18.12 18.55 17.84 18.29 17.4 18.2C16.7979 18.0902 16.1765 18.2116 15.66 18.54C15.27 18.9 15.32 19.26 15.61 19.54C15.9613 19.8062 16.3442 20.0279 16.75 20.2Z" fill="black"></path><path d="M16.35 21.45C16.2379 21.6785 16.0816 21.8825 15.89 22.05C15.6052 22.2791 15.2551 22.4122 14.89 22.43C14.3638 22.472 13.8406 22.3189 13.42 22C13.2222 21.8808 13.0436 21.7324 12.89 21.56C12.7895 21.4491 12.6669 21.3605 12.53 21.3C12.53 21.3 13.28 25.4 15.1 26.05C16.92 26.7 17.24 25.3 17.3 24.92C17.3601 23.7851 17.0742 22.6588 16.48 21.69C16.46 21.38 16.45 21.58 16.35 21.45Z" fill="#F06351"></path><path d="M14.71 22.59C14.2453 22.5247 13.7989 22.3651 13.3982 22.1209C12.9975 21.8767 12.651 21.5531 12.38 21.17C12.3667 21.157 12.3561 21.1414 12.3489 21.1242C12.3417 21.1071 12.338 21.0886 12.338 21.07C12.338 21.0514 12.3417 21.0329 12.3489 21.0158C12.3561 20.9986 12.3667 20.983 12.38 20.97C12.393 20.9567 12.4086 20.9461 12.4258 20.9389C12.4429 20.9317 12.4614 20.928 12.48 20.928C12.4986 20.928 12.5171 20.9317 12.5342 20.9389C12.5514 20.9461 12.567 20.9567 12.58 20.97C13.0848 21.6642 13.843 22.1313 14.69 22.27C15.0217 22.245 15.3426 22.1413 15.6261 21.9674C15.9096 21.7934 16.1475 21.5544 16.32 21.27L16.46 21.08L16.56 21.29C16.56 21.29 16.93 22.05 17.56 22.09C18.19 22.13 18.61 21.68 19.17 20.81C19.183 20.7967 19.1986 20.7861 19.2158 20.7789C19.2329 20.7717 19.2514 20.768 19.27 20.768C19.2886 20.768 19.3071 20.7717 19.3242 20.7789C19.3414 20.7861 19.357 20.7967 19.37 20.81C19.4023 20.8306 19.4255 20.8629 19.4348 20.9C19.4441 20.9372 19.4388 20.9766 19.42 21.01C18.78 22.01 18.15 22.45 17.54 22.41C17.308 22.3763 17.0867 22.2904 16.8927 22.1587C16.6987 22.0271 16.5371 21.8531 16.42 21.65C16.2233 21.9245 15.9676 22.1514 15.6717 22.3141C15.3758 22.4767 15.0472 22.571 14.71 22.59Z" fill="black"></path><path d="M26.24 18.92C24.4445 20.5437 22.7512 22.277 21.17 24.11C19.5987 25.9361 17.8238 27.5768 15.88 29C15.66 28.47 14.26 27.49 14.26 27.49C14.26 27.49 11.13 25.35 9.08001 23.67C7.97415 22.7373 6.92871 21.7353 5.95001 20.67L3.95001 20.56C6.84019 24.7655 11.0702 27.8676 15.95 29.36C16.81 29.22 19.22 27.5 21.02 26.1C23.1389 24.2819 25.124 22.3134 26.96 20.21C27.4625 19.621 27.8493 18.9425 28.1 18.21C27 18.6 26.24 18.92 26.24 18.92Z" fill="#F06351"></path></g><defs><clipPath id="logo-mobile_0"><rect width="33.32" height="37.61" fill="white"></rect></clipPath></defs></svg><svg viewBox="0 0 61 51" fill="none" id="logo-tablet"><path d="M51.5819 19.854C50.0969 16.265 47.7053 13.1312 44.6456 10.7649C41.5858 8.39869 37.9646 6.88262 34.143 6.36781C30.3214 5.85301 26.4328 6.35745 22.8646 7.83086C19.2965 9.30427 16.1735 11.6952 13.8068 14.7654C11.4402 17.8355 9.9125 21.4777 9.37609 25.329C8.83968 29.1802 9.31325 33.106 10.7496 36.7151C12.186 40.3242 14.535 43.4906 17.5625 45.8987C20.59 48.3068 24.1903 49.8726 28.0046 50.4399C27.505 48.6238 26.9967 46.6166 26.5488 44.4878C27.8519 45.3405 29.2235 46.0816 30.6492 46.7035C30.6492 46.7035 30.7526 48.5804 30.8904 50.6745C32.4308 50.7013 33.9698 50.5644 35.4818 50.2661C35.4427 50.0477 35.4427 49.8241 35.4818 49.6057C35.7316 47.9808 36.4208 45.0526 36.5586 43.167C37.552 42.2297 38.3948 41.1421 39.0567 39.9434L39.005 40.3257C38.5312 44.0273 37.5406 47.9808 36.9376 49.0757C36.7424 49.4381 36.5021 49.7739 36.2226 50.0749C39.3408 49.3371 42.2626 47.924 44.7855 45.9336C47.3083 43.9433 49.3718 41.4233 50.8329 38.5484C52.2941 35.6735 53.1179 32.5124 53.2472 29.2843C53.3765 26.0563 52.8083 22.8385 51.5819 19.854ZM50.3156 23.1472C49.9366 23.5208 49.1527 23.7728 49.0235 22.6432C48.8942 21.5136 48.8598 20.7229 48.8598 20.7229C48.8598 20.7229 47.1972 17.7425 46.577 17.7078C45.9568 17.673 41.5549 20.7229 40.3919 22.0524C39.3841 23.1733 39.1859 23.0951 39.1859 25.0675C39.1859 26.5534 39.3755 32.1666 39.2721 36.459L32.2514 38.3446C30.0448 38.9834 27.8007 39.4825 25.5323 39.8391L24.6709 34.7733H24.5503L22.3364 23.3297C22.3364 23.3297 19.0543 22.0784 17.8483 21.7396C17.2821 21.4897 16.6568 21.4084 16.0462 21.5054C15.4356 21.6024 14.8653 21.8736 14.4026 22.287C13.9306 22.7039 13.5531 23.2185 13.296 23.7958C13.0388 24.373 12.908 24.9994 12.9124 25.6323C13.0945 26.0362 13.2331 26.4585 13.3258 26.8922C13.3689 27.3093 12.2921 27.2659 11.603 27.2659C10.9138 27.2659 10.8105 26.0146 11.3532 24.5462C11.7766 23.417 12.3013 22.3292 12.921 21.2964C13.387 20.3738 13.9881 19.5273 14.7041 18.7852C14.7041 18.7852 14.8247 18.4898 15.7809 18.5767C16.7371 18.6636 22.0521 18.9503 22.0521 18.9503L22.0952 16.9779C27.8722 16.1733 33.6987 15.7842 39.5305 15.8135C39.5305 16.3436 39.5305 16.8736 39.5305 17.4037C41.7394 16.3869 44.118 15.7974 46.5425 15.6658C46.6723 15.6625 46.8008 15.6917 46.9166 15.7509C47.0323 15.81 47.1317 15.8973 47.2058 16.0047C47.4987 16.3783 49.2819 18.6115 49.4886 18.933C50.0677 19.7677 50.5942 20.6383 51.065 21.5397C50.9037 22.1104 50.6505 22.6505 50.3156 23.1385V23.1472Z" fill="#FDC305"></path><path d="M48.6363 17.8294C49.0411 18.3508 49.3943 18.8113 49.4977 18.9503C50.0768 19.7851 50.6033 20.6557 51.0741 21.5571C50.9102 22.1091 50.6601 22.6312 50.3333 23.1038C49.9543 23.4774 49.1704 23.7294 49.0411 22.5998C48.9119 21.4702 48.8602 20.7229 48.8602 20.7229C48.8602 20.7229 47.1977 17.7425 46.5775 17.7078C45.9572 17.673 41.5553 20.7229 40.3924 22.0524C39.3845 23.1733 39.1864 23.0951 39.1864 25.0675C39.1864 26.3709 39.3328 30.8458 39.2984 34.8254C40.8576 34.9992 43.149 35.4337 43.8381 36.459C43.8381 36.459 43.5883 30.2202 50.5659 33.4873C50.5659 33.4873 50.8071 24.9806 60.4378 27.1616C57.1639 23.2844 53.1505 20.1107 48.6363 17.8294Z" fill="#F06351"></path><path d="M39.5654 15.8135C39.6004 10.9987 39.1967 6.1907 38.3594 1.45035C38.3594 1.45035 38.2302 0.320754 37.61 1.24181C37.0982 2.34291 36.7499 3.51402 36.5762 4.71747C32.8938 4.47914 29.1975 4.57802 25.5327 5.0129C24.8264 2.62338 23.6204 1.53724 23.0432 1.82398C22.466 2.11072 22.3971 4.67403 22.3971 4.67403L22.1129 16.9779C27.8956 16.1725 33.7279 15.7834 39.5654 15.8135Z" fill="#F06351"></path><path d="M39.0651 39.9434C39.1771 39.0136 39.2374 37.7798 39.2718 36.4156L32.2515 38.3011C30.0459 38.9546 27.8019 39.4682 25.5327 39.8391L26.4889 44.1837C26.4889 44.2793 26.4889 44.3748 26.5492 44.4704C27.8522 45.3231 29.2237 46.0642 30.6494 46.6861C32.7328 45.6815 34.7171 44.4799 36.5757 43.0975V43.1497C37.5646 42.217 38.4044 41.1354 39.0651 39.9434Z" fill="#E55645"></path><path d="M27.5657 13.0938C27.5226 13.0069 28.4271 13.6847 28.7803 13.8932C29.1334 14.1018 29.3057 14.2582 29.3057 14.4059C29.3057 14.5536 29.0817 14.7013 28.7716 14.7013C28.4615 14.7013 27.9792 14.5971 27.9103 14.4754C27.8413 14.3538 28.4271 14.4754 28.72 14.4754H28.9698C28.4394 14.084 27.9667 13.6189 27.5657 13.0938Z" fill="black"></path><path d="M34.0264 13.1894C34.0264 13.1894 33.165 14.3016 33.0875 14.3538C33.0099 14.4059 32.941 14.6492 33.2511 14.6057C33.6071 14.5521 33.9585 14.4708 34.302 14.3624C34.3968 14.3103 34.3623 14.1887 34.1986 14.206C34.035 14.2234 33.6129 14.2495 33.3373 14.3016L34.0694 13.1981C34.0694 13.1981 34.0953 13.0938 34.0264 13.1894Z" fill="black"></path><path d="M31.3215 18.4985C31.7208 18.321 32.0508 18.0156 32.2604 17.6296C32.5016 17.0561 32.2604 16.8389 31.8814 16.7607C31.36 16.6647 30.8218 16.7702 30.374 17.0561C30.038 17.3776 30.0811 17.6904 30.374 17.925C30.6649 18.1552 30.9832 18.3478 31.3215 18.4985Z" fill="black"></path><path d="M31.0113 19.5933C30.9124 19.7904 30.778 19.9672 30.615 20.1147C30.3697 20.3138 30.0681 20.4294 29.7536 20.4449C29.2794 20.4918 28.8052 20.3552 28.4271 20.0625C28.2535 19.9601 28.0989 19.8278 27.9706 19.6715C27.8844 19.5769 27.7785 19.5027 27.6605 19.4543C27.6605 19.4543 28.3065 23.0255 29.8742 23.599C31.4419 24.1725 31.7348 22.9387 31.7779 22.6085C31.8304 21.6196 31.5841 20.6379 31.0715 19.7932C31.0715 19.5325 31.0543 19.7063 31.0113 19.5933Z" fill="#F06351"></path><path d="M29.5469 20.5839C29.1438 20.5254 28.7566 20.3852 28.4087 20.1716C28.0608 19.9581 27.7594 19.6756 27.5226 19.3413C27.5015 19.3174 27.4897 19.2865 27.4897 19.2544C27.4897 19.2224 27.5015 19.1915 27.5226 19.1676C27.5339 19.156 27.5473 19.1468 27.5621 19.1405C27.5769 19.1343 27.5927 19.131 27.6088 19.131C27.6248 19.131 27.6407 19.1343 27.6555 19.1405C27.6703 19.1468 27.6837 19.156 27.6949 19.1676C27.9081 19.4692 28.1785 19.7252 28.4905 19.9206C28.8025 20.116 29.1499 20.2469 29.5124 20.3058C29.7993 20.2841 30.0769 20.194 30.3225 20.0429C30.5681 19.8919 30.7746 19.6842 30.9251 19.4369L31.0457 19.2718L31.1319 19.463C31.1319 19.463 31.4592 20.1234 31.9932 20.1581C32.5273 20.1929 32.9063 19.7932 33.3973 19.0372C33.4156 19.0096 33.444 18.9904 33.4763 18.9838C33.5086 18.9773 33.5422 18.984 33.5696 19.0025C33.597 19.0209 33.616 19.0496 33.6225 19.0822C33.629 19.1147 33.6223 19.1486 33.604 19.1762C33.0298 20.0278 32.4871 20.4362 31.976 20.4014C31.7785 20.375 31.5893 20.3043 31.4224 20.1946C31.2554 20.0848 31.115 19.9388 31.0113 19.7671C30.8427 20.0045 30.6238 20.201 30.3705 20.3423C30.1172 20.4836 29.8358 20.5661 29.5469 20.5839Z" fill="black"></path><path d="M31.2353 32.2795C33.0192 32.2795 34.4655 30.8207 34.4655 29.0211C34.4655 27.2215 33.0192 25.7626 31.2353 25.7626C29.4513 25.7626 28.0051 27.2215 28.0051 29.0211C28.0051 30.8207 29.4513 32.2795 31.2353 32.2795Z" fill="#FDC305"></path><path d="M35.5163 26.3709L32.8201 27.5092L33.8107 22.6172L27.3503 31.0978L30.0465 29.9595L29.0559 34.8602L35.5163 26.3709ZM29.1506 29.6988L32.734 24.998L32.0363 28.4737L33.7591 27.7611L30.1498 32.4707L30.8476 28.995L29.1506 29.6988Z" fill="#111111"></path><path d="M27.9447 28.4215C28.4776 28.4215 28.9095 27.9858 28.9095 27.4483C28.9095 26.9109 28.4776 26.4751 27.9447 26.4751C27.4119 26.4751 26.98 26.9109 26.98 27.4483C26.98 27.9858 27.4119 28.4215 27.9447 28.4215Z" fill="#111111"></path><path d="M33.5612 31.9493C33.9371 31.9493 34.2417 31.642 34.2417 31.2629C34.2417 30.8838 33.9371 30.5764 33.5612 30.5764C33.1854 30.5764 32.8807 30.8838 32.8807 31.2629C32.8807 31.642 33.1854 31.9493 33.5612 31.9493Z" fill="#111111"></path><path d="M34.3882 30.0638C34.5547 30.0638 34.6897 29.9276 34.6897 29.7597C34.6897 29.5917 34.5547 29.4555 34.3882 29.4555C34.2217 29.4555 34.0867 29.5917 34.0867 29.7597C34.0867 29.9276 34.2217 30.0638 34.3882 30.0638Z" fill="#111111"></path><path d="M39.5224 17.3863C37.9674 18.8002 36.5029 20.3123 35.1377 21.9133C33.7778 23.5028 32.2433 24.9312 30.5635 26.171C30.374 25.7105 29.1594 24.8503 29.1594 24.8503C29.1594 24.8503 26.4545 22.9821 24.6799 21.5136C23.7207 20.7077 22.8169 19.8368 21.9751 18.9069L20.2522 18.8113C22.7392 22.4757 26.3826 25.183 30.5893 26.4925C31.3302 26.3709 33.4148 24.8677 34.974 23.6425C36.8187 22.0601 38.5461 20.3437 40.1426 18.5072C40.5717 17.9928 40.9044 17.4039 41.1246 16.7693C40.1426 17.0995 39.5224 17.3863 39.5224 17.3863Z" fill="#F06351"></path><path d="M22.3368 23.3297C22.3368 23.3297 19.0548 22.0784 17.8488 21.7396C17.2825 21.4897 16.6572 21.4084 16.0466 21.5054C15.4361 21.6024 14.8658 21.8736 14.4031 22.287C13.931 22.7039 13.5536 23.2185 13.2964 23.7958C13.0393 24.373 12.9084 24.9994 12.9128 25.6323C13.0949 26.0362 13.2335 26.4585 13.3263 26.8922C13.3694 27.3093 12.2926 27.2659 11.6034 27.2659C10.9143 27.2659 10.8109 26.0146 11.3536 24.5462C11.777 23.417 12.3018 22.3292 12.9214 21.2964C8.22664 23.7641 0 29.4642 0 29.4642C2.35316 29.3211 4.71429 29.3909 7.0551 29.6728C11.5776 30.1333 11.3622 33.7306 11.3622 33.7306C12.9529 33.2883 14.574 32.9659 16.2121 32.7661C18.0383 32.6445 18.1675 34.6082 18.1675 34.6082L18.6241 37.9622C19.3173 37.2057 20.0819 36.5189 20.9069 35.9116C21.9703 35.0529 23.3243 34.6476 24.6799 34.782L22.3368 23.3297Z" fill="#F06351"></path></svg><svg viewBox="0 0 24 18" fill="none" id="slider-button"><path d="M8 0L0 9L8 18V0Z" fill="#666666"></path><path d="M24 9L16 0V18L24 9Z" fill="#666666"></path></svg><svg viewBox="0 0 36 50" fill="none" id="slim-icon"><path d="M28.2034 0H28.008C27.6778 0.187081 27.415 0.473924 27.2571 0.819588C26.968 1.37738 26.7453 1.96735 26.5937 2.57732C26.5612 2.76073 26.4688 2.92811 26.331 3.05315C26.1932 3.17818 26.0179 3.25377 25.8326 3.26804C25.2658 3.36597 24.7288 3.59243 24.2626 3.93012C23.7965 4.26781 23.4135 4.7078 23.1429 5.21649C22.7708 5.87697 22.4526 6.5665 22.1914 7.27835C21.4611 9.17526 20.9006 11.134 20.2114 13.0464C19.8874 13.9175 19.872 13.9175 18.8949 13.9175C17.7274 13.9175 17.8097 13.7371 17.7943 15.0258C17.7943 15.433 17.9177 15.6392 18.3497 15.6186C18.4834 15.6186 18.684 15.5515 18.7354 15.7268C18.7869 15.9021 18.612 15.9794 18.5091 16.0825C17.8994 16.7029 17.1276 17.1388 16.2823 17.3402C15.3051 17.6031 14.3074 17.8093 13.356 18.1289C10.9131 18.9485 8.65543 20.0928 6.89657 22.0309C5.86814 23.2347 5.04455 24.6001 4.45886 26.0722C2.57143 30.5258 1.656 35.2165 0.946286 39.9536C0.612 42.1753 0.375429 44.4072 0.195429 46.6546C0.102857 47.7577 0 48.8763 0 50H17.1411C17.1696 49.7731 17.1283 49.5429 17.0229 49.3402C16.858 48.9289 16.5901 48.5672 16.2451 48.29C15.9 48.0128 15.4895 47.8295 15.0531 47.7577C14.6931 47.6753 14.652 47.567 14.8731 47.2835C15.2338 46.801 15.5103 46.2607 15.6909 45.6856C16.5291 43.2062 16.8531 40.6186 17.2594 38.0567C17.4889 36.0999 18.0894 34.2051 19.0286 32.4742C19.7611 31.2002 20.7382 30.0842 21.9034 29.1907C22.3303 28.866 22.3457 28.866 22.4177 29.4175C22.4691 29.7835 22.4794 30.1598 22.5051 30.5309C22.6595 32.9662 22.6285 35.4097 22.4126 37.8402C22.2184 39.7242 22.1926 41.6217 22.3354 43.5103C22.5399 45.7029 22.9304 47.8739 23.5029 50H30.3429C30.2536 49.442 29.9973 48.9243 29.6078 48.5156C29.2184 48.1069 28.7143 47.8264 28.1623 47.7113C27.5177 47.6087 26.8587 47.6438 26.2286 47.8144C25.92 47.8866 25.7914 47.8144 25.7657 47.4794C25.5529 44.7505 25.7261 42.0051 26.28 39.3247C26.966 36.2304 27.4912 33.1025 27.8537 29.9536C27.9887 28.6819 28.3881 27.4528 29.0263 26.3454C29.6383 25.2526 30.1731 24.1186 30.7749 23.0206C31.0138 22.6214 31.1575 22.1723 31.195 21.7083C31.2325 21.2443 31.1626 20.7779 30.9909 20.3454C30.852 19.9794 30.7183 19.6082 30.5486 19.2577C30.0343 18.2526 29.52 17.2577 29.0469 16.2423C28.7949 15.7268 28.8514 15.6649 29.412 15.6495C30.2503 15.6495 30.2503 15.6495 30.2657 14.8041C30.2657 14.6907 30.2657 14.5773 30.2657 14.4639C30.2657 14.1082 30.132 13.9124 29.7514 13.9485C29.4943 13.9485 29.2371 13.9485 28.9697 13.9485C28.6149 13.9485 28.512 13.799 28.5994 13.433C28.7729 12.838 29.1142 12.306 29.5823 11.9009C30.0503 11.4958 30.6252 11.2349 31.2377 11.1495C32.3772 11.0505 33.5251 11.1252 34.6423 11.3711C34.7712 11.4118 34.9109 11.4001 35.0312 11.3383C35.1515 11.2766 35.2427 11.1699 35.2851 11.0412C35.4909 10.5258 35.7171 10.0103 35.9486 9.49484C36.001 9.40339 36.0242 9.29801 36.015 9.19293C36.0058 9.08785 35.9647 8.98812 35.8971 8.90722C34.2514 6.81443 32.4669 4.86082 30.0343 3.60825C29.9168 3.55754 29.8138 3.47814 29.7347 3.3773C29.6557 3.27646 29.6031 3.15738 29.5817 3.03093C29.444 2.29408 29.225 1.57487 28.9286 0.886598C28.7895 0.519904 28.5349 0.20865 28.2034 0V0Z" fill="black"></path></svg><svg viewBox="0 0 129 24" fill="none" id="text-logo-big"><path d="M2.10253 22.0513C0.968358 20.3682 0.405343 18.3503 0.50003 16.3077V7.79487C0.362683 5.73031 0.890444 3.67661 2.00238 1.94872C3.1041 0.615385 4.80676 0 7.31067 0C9.81458 0 11.4171 0.615385 12.4187 1.74359C13.506 3.17255 14.0409 4.96181 13.921 6.76923V8.82051H9.01333V6.46154C9.05297 5.76385 8.95065 5.06533 8.71286 4.41026C8.58576 4.14583 8.38431 3.9264 8.13443 3.78018C7.88455 3.63395 7.59766 3.56763 7.31067 3.58974C6.60958 3.58974 6.10879 3.79487 5.90848 4.30769C5.68191 5.03643 5.58025 5.79984 5.60801 6.5641V17.5385C5.55512 18.2799 5.69327 19.0227 6.00864 19.6923C6.20895 20.2051 6.70973 20.4103 7.41083 20.4103C8.11192 20.4103 8.51255 20.2051 8.71286 19.6923C8.94058 18.9992 9.04242 18.2692 9.01333 17.5385V15.0769H13.921V17.1282C14.0229 18.9651 13.4911 20.7803 12.4187 22.2564C11.4171 23.4872 9.71443 24.1026 7.31067 24.1026C4.90692 24 3.1041 23.3846 2.10253 22.0513Z" fill="#111111"></path><path d="M19.8302 0.307617H25.5391L29.7457 23.6922H25.1385L24.3372 18.7692H21.0321L20.2308 23.6922H15.5235L19.8302 0.307617ZM23.9366 15.6922L22.7347 6.56403L21.5329 15.6922H23.9366Z" fill="#111111"></path><path d="M33.2512 4.20505H29.8458V0.307617H41.7645V4.10249H38.3591V23.6922H33.2512V4.20505Z" fill="#111111"></path><path d="M50.8787 0.307617H59.6925V2.76916H53.9836V10.4615H58.5908V12.8204H53.9836V21.4358H59.6925V23.7948H50.7786V0.307617H50.8787Z" fill="#111111"></path><path d="M62.2966 0.307617H64.5L71.0102 15.7948V0.307617H73.6142V23.6922H71.6111L65.0008 7.69223V23.6922H62.2966V0.307617Z" fill="#111111"></path><path d="M76.6189 0.307617H85.4327V2.76916H79.7238V10.4615H84.331V12.8204H79.7238V21.4358H85.4327V23.7948H76.6189V0.307617Z" fill="#111111"></path><path d="M88.0368 0.3076H92.644C94.4564 0.179397 96.2575 0.685711 97.7519 1.7435C98.8537 2.66657 99.3544 4.3076 99.3544 6.46145C99.3544 9.4358 98.453 11.282 96.5501 11.8973L99.7551 23.5897H96.6502L93.6455 12.6153H91.1416V23.5897H87.9366V0.3076H88.0368ZM92.4437 10.3589C93.4762 10.446 94.5053 10.1553 95.3482 9.53837C95.9491 9.02555 96.2496 7.99991 96.2496 6.46145C96.2774 5.69719 96.1757 4.93378 95.9491 4.20504C95.7237 3.68211 95.3366 3.24964 94.8474 2.97427C94.1576 2.65236 93.4003 2.51137 92.644 2.56401H91.2418V10.2563H92.4437V10.3589Z" fill="#111111"></path><path d="M103.361 21.9487C102.32 20.1554 101.831 18.0821 101.959 15.9999V8.20507C101.934 6.71875 102.102 5.23567 102.459 3.79481C102.794 2.71811 103.462 1.78218 104.362 1.12815C105.481 0.450275 106.771 0.128917 108.068 0.20507C110.171 0.20507 111.674 0.71789 112.575 1.8461C113.612 3.33582 114.108 5.14977 113.977 6.9743V7.79481H110.973V7.07687C110.977 6.21789 110.91 5.36008 110.772 4.51276C110.688 3.97732 110.4 3.49792 109.971 3.17943C109.408 2.80104 108.74 2.62099 108.068 2.66661C107.35 2.61949 106.639 2.83785 106.065 3.28199C105.829 3.48529 105.637 3.73569 105.499 4.01787C105.361 4.30004 105.281 4.60805 105.264 4.92302C105.132 5.83993 105.065 6.76543 105.063 7.69225V16.4102C104.99 17.7384 105.194 19.0674 105.664 20.3076C106.065 21.1281 106.866 21.4358 108.068 21.4358C108.543 21.4964 109.024 21.4119 109.452 21.1929C109.88 20.9739 110.234 20.6302 110.472 20.2051C111.001 18.9081 111.241 17.5064 111.173 16.1025V14.4615H108.268V12.1025H114.077V23.6923H112.074L111.774 21.0256C111.511 21.9193 110.965 22.6975 110.22 23.2364C109.476 23.7753 108.578 24.0441 107.667 23.9999C106.84 24.0498 106.013 23.8885 105.261 23.5304C104.51 23.1724 103.857 22.6289 103.361 21.9487Z" fill="#111111"></path><path d="M120.487 15.4871L115.58 0.410156H118.584L122.09 11.6922L125.495 0.410156H128.5L123.592 15.4871V23.6922H120.588V15.4871H120.487Z" fill="#111111"></path></svg><svg viewBox="0 0 21 18" fill="none" id="tg-icon"><path fill-rule="evenodd" clip-rule="evenodd" d="M19.9608 0.152905C20.1393 0.302216 20.2255 0.534898 20.1872 0.764481L17.5611 16.5214C17.5244 16.7411 17.3789 16.9273 17.1745 17.0159C16.97 17.1045 16.7346 17.0833 16.5493 16.9597L8.67082 11.7074C8.51771 11.6054 8.41447 11.4437 8.38624 11.2619C8.358 11.08 8.40738 10.8947 8.52233 10.751L11.133 7.48773L6.77303 10.3944C6.577 10.525 6.32597 10.5407 6.11524 10.4353L0.862931 7.80915C0.627693 7.69153 0.485347 7.44488 0.5012 7.18235C0.517052 6.91983 0.688044 6.6921 0.935726 6.60364L19.3188 0.0382579C19.538 -0.0400244 19.7822 0.00359465 19.9608 0.152905ZM2.82626 7.32275L6.36168 9.09046L13.9231 4.0495C14.1925 3.86994 14.5525 3.91349 14.7712 4.1521C14.99 4.3907 15.0022 4.75314 14.8 5.00591L9.99502 11.0121L16.4328 15.3039L18.7083 1.65058L2.82626 7.32275Z" fill="#666666"></path></svg><svg viewBox="0 0 28 17" fill="none" id="vk-icon"><path d="M0.5 2.33876C0.5 1.48373 1.0151 1.02268 2.04531 0.955621L6.01515 0.980769C6.28158 0.980769 6.45921 1.10651 6.54802 1.35799C6.95655 2.61538 7.41392 3.70094 7.92014 4.61465C8.42637 5.52835 9.08801 6.58038 9.90507 7.77071C9.97611 7.9216 10.0916 7.99704 10.2514 7.99704C10.3758 7.99704 10.4735 7.93836 10.5445 7.82101L10.6244 7.54438L10.6511 3.19379C10.6511 2.89201 10.5756 2.69083 10.4246 2.59024C10.2736 2.48965 9.99388 2.4142 9.58535 2.36391C9.26563 2.31361 9.10577 2.12919 9.10577 1.81065C9.10577 1.74359 9.11465 1.69329 9.13241 1.65976C9.50542 0.57002 10.5711 0.0251479 12.3296 0.0251479L13.8216 0C14.4966 0 15.0561 0.15927 15.5001 0.477811C15.9442 0.796351 16.1662 1.29931 16.1662 1.98669V7.69527C16.2906 7.77909 16.406 7.82101 16.5126 7.82101C16.779 7.82101 17.0099 7.67012 17.2053 7.36834C19.1592 4.78649 20.216 3.05966 20.3759 2.18787C20.3759 2.1711 20.3936 2.12919 20.4291 2.06213C20.5535 1.81065 20.7577 1.5927 21.0419 1.40828C21.3261 1.22387 21.5748 1.09813 21.788 1.03107C21.859 0.997535 21.9389 0.980769 22.0277 0.980769H26.1574L26.4239 1.00592C26.7791 1.00592 27.0544 1.16519 27.2498 1.48373C27.3209 1.58432 27.3697 1.69329 27.3964 1.81065C27.423 1.92801 27.4408 2.04536 27.4496 2.16272C27.4585 2.28008 27.463 2.34714 27.463 2.36391V2.53994C27.3386 3.22732 27.0233 3.9608 26.5171 4.74038C26.0109 5.51997 25.367 6.36243 24.5855 7.26775C23.804 8.17308 23.3155 8.76825 23.1201 9.05326C22.9603 9.25444 22.8803 9.43886 22.8803 9.60651C22.8803 9.74063 22.9514 9.89152 23.0935 10.0592L26.9834 14.6864C27.1965 14.9546 27.3031 15.248 27.3031 15.5666C27.3031 15.9522 27.1432 16.2707 26.8235 16.5222C26.5038 16.7737 26.1219 16.9162 25.6779 16.9497L25.2249 16.9749H21.1752C21.1574 16.9749 21.1219 16.979 21.0686 16.9874C21.0153 16.9958 20.9798 17 20.962 17C20.5712 17 20.2071 16.8407 19.8696 16.5222C19.7453 16.3881 18.9105 15.3989 17.3652 13.5547C17.2764 13.4374 17.152 13.3284 16.9922 13.2278C16.9211 13.4961 16.8279 13.8817 16.7124 14.3846C16.597 14.8876 16.5126 15.248 16.4593 15.466L16.3794 15.8935C16.2018 16.4803 15.8287 16.8323 15.2604 16.9497L14.8874 16.9749H12.2763C10.8021 16.9749 9.33224 16.3378 7.86686 15.0636C6.40148 13.7894 5.08264 12.1423 3.91034 10.122C2.73803 8.10182 1.64566 5.75049 0.633216 3.06805C0.544405 2.8501 0.5 2.607 0.5 2.33876ZM16.5126 8.85207C16.1396 8.85207 15.8021 8.75567 15.5001 8.56287C15.1982 8.37007 15.0472 8.10602 15.0472 7.77071V1.98669C15.0472 1.65138 14.9584 1.41248 14.7808 1.26997C14.6032 1.12747 14.2923 1.05621 13.8483 1.05621L12.3296 1.10651C11.5658 1.10651 10.9886 1.23225 10.5978 1.48373C11.3793 1.8358 11.7701 2.40582 11.7701 3.19379V7.61982C11.7346 8.03895 11.5569 8.38683 11.2372 8.66346C10.9175 8.94009 10.5623 9.0784 10.1715 9.0784C9.63863 9.0784 9.2301 8.83531 8.94591 8.34911C7.56046 6.37081 6.53025 4.4931 5.85529 2.71598L5.6155 2.06213L2.07195 2.03698C1.84104 2.03698 1.71227 2.04956 1.68562 2.0747C1.65898 2.09985 1.64566 2.1711 1.64566 2.28846C1.64566 2.43935 1.66342 2.59862 1.69895 2.76627L2.25845 4.17456C3.75048 7.81262 5.37127 10.6795 7.12085 12.7751C8.87042 14.8708 10.5889 15.9186 12.2763 15.9186H14.9406C15.0472 15.9186 15.1271 15.8893 15.1804 15.8306C15.2337 15.7719 15.2781 15.6588 15.3136 15.4911L15.3669 15.2396L15.8732 13.0266C16.0152 12.7249 16.1396 12.5237 16.2462 12.4231C16.4415 12.2387 16.6725 12.1465 16.9389 12.1465C17.3652 12.1465 17.8003 12.3895 18.2444 12.8757L20.5091 15.5917C20.6512 15.8097 20.8022 15.9186 20.962 15.9186H25.3581C25.891 15.9186 26.1574 15.7929 26.1574 15.5414C26.1574 15.4576 26.1308 15.3738 26.0775 15.2899L22.2142 10.7382C21.9123 10.3861 21.7613 10.0089 21.7613 9.60651C21.7613 9.20414 21.9034 8.81854 22.1876 8.4497C22.4185 8.1144 22.867 7.55695 23.5331 6.77737C24.1992 5.99778 24.7809 5.26849 25.2782 4.5895C25.7756 3.9105 26.1042 3.29438 26.264 2.74112L26.3439 2.4142C26.3262 2.38067 26.3173 2.32618 26.3173 2.25074C26.3173 2.1753 26.3084 2.11243 26.2907 2.06213H22.1077C21.8412 2.16272 21.6281 2.31361 21.4682 2.51479L21.3084 2.9926C20.8643 4.14941 19.7009 5.93491 17.8181 8.34911C17.4451 8.68442 17.0099 8.85207 16.5126 8.85207Z" fill="#666666"></path></svg><svg viewBox="0 0 26 29" fill="none" id="water-icon"><path d="M10.875 0C9.24375 0 7.975 1.35937 7.975 3.08125C7.975 4.80312 9.24375 6.1625 10.875 6.1625C12.5063 6.1625 13.775 4.80312 13.775 3.08125C13.775 1.35937 12.5063 0 10.875 0ZM10.875 1.17812C11.8719 1.17812 12.5969 2.02094 12.5969 3.08125C12.5969 4.07812 11.8084 4.98438 10.875 4.98438C9.87813 4.98438 9.15313 4.14156 9.15313 3.08125C9.15313 2.08437 9.9325 1.17812 10.875 1.17812ZM0 24.7406C0 25.9188 0.407813 26.9156 1.35938 27.7313C2.35625 28.5831 3.53438 28.5106 3.53438 28.5106H22.5656C23.345 28.5106 24.3781 28.13 25.1937 27.0606C26.0366 26.0638 25.9822 24.7044 25.9822 24.7044V7.48563C25.9822 7.05063 25.8734 6.8875 25.2391 6.8875C24.6047 6.8875 24.5503 7.15938 24.5503 7.47656V24.6953C24.5322 24.9944 24.4778 25.7828 23.8072 26.4172C23.0731 27.0425 22.3572 26.9609 22.3572 26.9609C22.3572 26.9609 4.23219 26.9609 3.32594 26.9338C2.98156 26.8703 2.41969 26.7434 1.87594 26.0275C1.36844 25.3025 1.46812 24.3962 1.46812 24.3962V7.1775C1.46812 6.71531 1.2325 6.54313 0.743125 6.54313C0.25375 6.54313 0 6.71531 0 7.12313V24.7406ZM16.3125 8.42813C15.225 8.66375 14.1375 8.80875 12.0531 10.7844C9.96875 12.7781 8.42813 12.6875 6.8875 12.5969C5.34688 12.5063 3.71563 11.0563 3.44375 10.6938C3.10844 10.3403 2.5375 10.5759 2.35625 10.8116C2.20219 11.0472 2.20219 11.455 2.465 11.8084C3.73375 12.9866 4.91188 13.8928 7.1775 14.0741C9.44312 14.2916 11.6181 13.2675 13.0681 11.8084C14.5181 10.3584 15.2431 10.0866 16.3306 9.90531C18.9587 9.48844 20.4994 10.5216 21.4056 11.1741C22.4025 12.2616 22.6744 11.9534 22.9462 11.6453C23.49 10.9294 22.7197 10.3766 21.8588 9.74219C20.0463 8.56406 18.3244 8.11094 16.3306 8.47344L16.3125 8.42813ZM7.25 15.5875C6.07188 15.5875 5.16562 16.5844 5.16562 17.8531C5.16562 19.1219 6.07188 20.1188 7.25 20.1188C8.42813 20.1188 9.33438 19.1219 9.33438 17.8531C9.33438 16.5844 8.42813 15.5875 7.25 15.5875ZM19.0312 16.3669C17.4906 16.3669 16.2219 17.7262 16.2219 19.3575C16.2219 20.9888 17.4906 22.3481 19.0312 22.3481C20.5719 22.3481 21.8406 20.9888 21.8406 19.3575C21.8406 17.7262 20.5719 16.3669 19.0312 16.3669ZM19.0312 17.8169C19.8288 17.8169 20.4813 18.5147 20.4813 19.3575C20.4813 20.2184 19.8288 20.8981 19.0312 20.8981C18.2337 20.8981 17.5812 20.2003 17.5812 19.3575C17.5812 18.4966 18.2337 17.8169 19.0312 17.8169Z" fill="white"></path></svg><svg viewBox="0 0 67 28" fill="none" id="weight-icon"><path d="M61.5591 2.87843C62.1364 1.95997 62.9036 1.17573 63.8091 0.578427C64.3091 0.228427 64.6091 0.228427 64.9091 0.878427C65.3091 1.82843 65.6591 2.82843 65.3591 3.87843C65.3045 4.05651 65.2942 4.24523 65.3291 4.4282C65.3639 4.61117 65.4429 4.78288 65.5591 4.92843C65.8591 5.32843 66.1091 5.72843 66.3591 6.07843C66.6994 6.51031 66.9201 7.02408 66.9991 7.5682C67.078 8.11231 67.0125 8.66763 66.8091 9.17843C66.6256 9.67433 66.5908 10.213 66.7091 10.7284C66.809 11.2234 66.809 11.7334 66.7091 12.2284C66.6687 12.5991 66.5187 12.9494 66.2782 13.2344C66.0377 13.5194 65.7177 13.7262 65.3591 13.8284C64.7196 13.9501 64.1488 14.3069 63.7591 14.8284C63.7119 14.9052 63.6457 14.9686 63.5669 15.0124C63.488 15.0562 63.3993 15.0789 63.3091 15.0784C62.7091 15.1784 61.2091 13.8284 61.2091 13.2284V12.9284C61.2591 11.1284 61.1591 10.9784 59.5091 10.2284C59.1638 10.1066 58.8544 9.90037 58.6091 9.62843C58.3091 9.22843 57.9091 9.27843 57.4591 9.42843C57.0091 9.57843 56.7591 9.87843 56.8091 10.3784C56.9599 11.5889 57.0101 12.8097 56.9591 14.0284C56.9624 14.1675 56.9966 14.3041 57.0591 14.4284C58.6091 16.6784 59.2091 19.3284 59.9591 21.8784C60.5591 23.8284 61.6591 24.8784 63.6591 25.0284C63.9792 25.054 64.2968 25.1041 64.6091 25.1784C65.02 25.2444 65.4017 25.4322 65.7048 25.7174C66.0078 26.0027 66.2183 26.3723 66.3091 26.7784C66.6591 27.8284 66.4591 28.0784 65.4091 28.0784H62.1591C61.7384 28.0997 61.3259 27.9562 61.0091 27.6784C60.5031 27.2514 59.9282 26.9132 59.3091 26.6784C58.6247 26.4258 58.0323 25.9728 57.6091 25.3784C57.0234 24.5602 56.3531 23.806 55.6091 23.1284C54.2091 21.6784 52.7091 20.2784 51.4091 18.7784C50.4195 17.7563 49.8486 16.4006 49.8091 14.9784C49.8091 14.5284 49.7091 14.3284 49.2091 14.5284C49.0594 14.6234 48.8864 14.6753 48.7091 14.6784C47.3091 14.6784 46.6091 15.5284 46.1091 16.7784C45.6591 17.8284 45.0591 18.8284 44.5091 19.8784C44.1972 20.5357 44.0269 21.2511 44.0091 21.9784C44.0091 23.1784 44.3091 23.5784 45.4091 23.9784C46.1091 24.2284 46.7591 24.4784 47.1091 25.1784C47.5091 25.9784 47.4091 26.1784 46.5591 26.2284H43.1591C42.9631 26.2478 42.7659 26.2052 42.5955 26.1065C42.425 26.0078 42.2899 25.8581 42.2091 25.6784L41.3091 24.1784C41.0438 23.7871 40.874 23.3389 40.8132 22.87C40.7524 22.4011 40.8024 21.9245 40.9591 21.4784C41.1755 20.6102 41.1926 19.7042 41.0091 18.8284C40.8831 18.2185 40.8939 17.5882 41.0409 16.9829C41.1879 16.3777 41.4674 15.8126 41.8591 15.3284C42.1591 14.9784 42.1591 14.8284 41.6591 14.7284C39.6146 14.2941 37.6325 13.6054 35.7591 12.6784C35.7459 12.6784 35.7331 12.6732 35.7238 12.6638C35.7144 12.6544 35.7091 12.6417 35.7091 12.6284C34.1091 12.0284 33.8091 12.1284 33.3591 13.7784C32.9591 15.1784 32.5591 16.5784 32.2591 18.0284C31.9091 19.6284 32.3091 21.1284 32.8091 22.6284C33.0091 23.2284 33.6091 23.1784 34.0591 23.3284C35.0591 23.6284 35.9091 24.0284 36.3091 25.0784C36.6591 25.8784 36.6091 25.9784 35.7591 25.9784C34.9091 25.9784 34.0591 25.9284 33.1591 25.9784C32.3997 25.9922 31.6584 25.7451 31.0591 25.2784C28.6591 23.6784 27.9591 21.2284 27.7591 18.5784C27.6591 16.9284 26.7591 15.6284 25.7091 14.3784C25.5091 14.1284 25.3091 14.0284 25.0091 14.2284C23.9359 14.8202 22.8153 15.3219 21.6591 15.7284C19.2462 16.5804 17.1289 18.1077 15.5591 20.1284C14.9729 20.8659 14.5933 21.746 14.4591 22.6784C14.3091 23.5784 14.5591 23.9784 15.4591 24.2284C16.3591 24.4784 16.8091 24.9784 16.9091 25.9284C16.9591 26.3284 16.8091 26.5284 16.4091 26.5284H12.3591C12.2266 26.519 12.0982 26.4778 11.9851 26.4081C11.8719 26.3385 11.7772 26.2425 11.7091 26.1284C11.081 25.3508 10.7449 24.3779 10.7591 23.3784C10.7329 21.6509 10.8837 19.9252 11.2091 18.2284C11.2759 17.7203 11.4656 17.2361 11.7618 16.8178C12.0581 16.3996 12.4519 16.06 12.9091 15.8284C15.8591 14.4284 17.4091 11.7784 18.8091 9.02843C19.1091 8.47843 18.8591 8.37843 18.3591 8.42843C16.9598 8.62269 15.634 9.17368 14.5091 10.0284C13.0362 11.1029 11.6487 12.2897 10.3591 13.5784C8.98394 14.9753 7.16046 15.8427 5.20911 16.0284C1.55911 16.2284 -0.140885 14.1784 0.00911497 10.8784C0.0426462 9.75323 0.466939 8.67482 1.20912 7.82843C1.46713 7.49393 1.81898 7.24392 2.21975 7.11033C2.62052 6.97674 3.05201 6.96563 3.45912 7.07843C4.20912 7.27843 4.40911 7.67843 4.10911 8.42843C3.95911 8.72843 3.75911 8.97843 3.60911 9.27843C3.39341 9.58491 3.22488 9.92198 3.10911 10.2784C2.55911 11.7784 3.30911 12.8284 4.85911 12.9784C6.50911 13.1284 7.85912 12.4284 9.10912 11.4284C10.6151 10.2226 11.9595 8.82775 13.1091 7.27843C13.9687 6.14713 15.0512 5.20407 16.2895 4.50749C17.5279 3.81091 18.8959 3.37559 20.3091 3.22843C21.4591 3.07843 22.4591 2.57843 23.5591 2.27843C25.6164 1.65123 27.7586 1.34761 29.9091 1.37843C30.9052 1.41991 31.8974 1.23172 32.8091 0.828427C35.2591 -0.171573 37.8091 -0.171573 40.3591 0.328427C42.3591 0.728427 44.3591 1.22843 46.3091 1.72843C47.4696 1.94467 48.6629 1.91057 49.8091 1.62843C52.0034 1.07219 54.248 0.737189 56.5091 0.628427C57.9904 0.55636 59.4667 0.848196 60.8091 1.47843C61.8091 1.92843 61.8091 1.92843 61.5591 2.87843Z" fill="black"></path></svg><svg viewBox="0 0 25 19" fill="none" id="yt-icon"><path d="M16.3509 8.79275L11.1145 5.30184C11.0159 5.23691 10.9016 5.19985 10.7837 5.19459C10.6657 5.18934 10.5486 5.21608 10.4446 5.27198C10.3406 5.32789 10.2537 5.41087 10.193 5.51215C10.1324 5.61343 10.1002 5.72924 10.1 5.84729V12.8291C10.1001 12.9481 10.1327 13.0648 10.1942 13.1667C10.2557 13.2686 10.3438 13.3518 10.4491 13.4073C10.5524 13.4631 10.6691 13.4895 10.7864 13.4837C10.9037 13.478 11.0172 13.4402 11.1145 13.3746L16.3509 9.88366C16.4409 9.82395 16.5148 9.7429 16.5658 9.64772C16.6169 9.55255 16.6436 9.44621 16.6436 9.3382C16.6436 9.23019 16.6169 9.12385 16.5658 9.02868C16.5148 8.93351 16.4409 8.85245 16.3509 8.79275ZM11.4091 11.6073V7.06911L14.8127 9.3382L11.4091 11.6073ZM23.8891 3.04366C23.7942 2.67547 23.6131 2.33511 23.3609 2.05061C23.1086 1.76611 22.7924 1.54561 22.4382 1.40729C18.7182 -0.0217993 12.7509 1.91553e-05 12.5 1.91553e-05C12.2491 1.91553e-05 6.28182 -0.0217993 2.56182 1.40729C2.20764 1.54561 1.8914 1.76611 1.63914 2.05061C1.38689 2.33511 1.20584 2.67547 1.11091 3.04366C0.827273 4.11275 0.5 6.07638 0.5 9.3382C0.5 12.6 0.827273 14.5637 1.11091 15.6327C1.20584 16.0009 1.38689 16.3413 1.63914 16.6258C1.8914 16.9103 2.20764 17.1308 2.56182 17.2691C6.28182 18.6982 12.2491 18.6764 12.5 18.6764H12.5764C13.3291 18.6764 18.8927 18.6327 22.4382 17.2691C22.7924 17.1308 23.1086 16.9103 23.3609 16.6258C23.6131 16.3413 23.7942 16.0009 23.8891 15.6327C24.1727 14.5637 24.5 12.6 24.5 9.3382C24.5 6.07638 24.1727 4.11275 23.8891 3.04366ZM22.6236 15.3055C22.5807 15.472 22.499 15.6259 22.3853 15.7548C22.2715 15.8838 22.1289 15.984 21.9691 16.0473C18.4782 17.3891 12.5655 17.3673 12.5 17.3673C12.4345 17.3673 6.52182 17.3891 3.03091 16.0473C2.87107 15.984 2.72846 15.8838 2.61471 15.7548C2.50096 15.6259 2.41929 15.472 2.37636 15.3055C2.11455 14.3018 1.80909 12.4582 1.80909 9.3382C1.80909 6.2182 2.11455 4.37457 2.37636 3.37093C2.41929 3.20445 2.50096 3.05047 2.61471 2.92156C2.72846 2.79264 2.87107 2.69243 3.03091 2.62911C6.52182 1.28729 12.4345 1.30911 12.5 1.30911C12.5655 1.30911 18.4782 1.28729 21.9691 2.62911C22.1289 2.69243 22.2715 2.79264 22.3853 2.92156C22.499 3.05047 22.5807 3.20445 22.6236 3.37093C22.8855 4.37457 23.1909 6.2182 23.1909 9.3382C23.1909 12.4582 22.8855 14.3018 22.6236 15.3055Z" fill="#666666"></path></svg></svg>