<svg xmlns="http://www.w3.org/2000/svg">
  <style>:root svg:not(:target) {
    display: none;
  }
  </style>
  <svg id="logo-desktop" width="71" height="59" fill="none" viewBox="0 0 71 59">
    <path fill="#FDC305" d="M59.883 23.806A25.432 25.432 0 0 0 51.83 13.43a25.725 25.725 0 0 0-12.193-5.02 25.803 25.803 0 0 0-13.093 1.671 25.59 25.59 0 0 0-10.515 7.916 25.296 25.296 0 0 0-5.144 12.06 25.212 25.212 0 0 0 1.595 12.997 25.423 25.423 0 0 0 7.909 10.484 25.719 25.719 0 0 0 12.122 5.184 113.04 113.04 0 0 1-1.69-6.794 32.41 32.41 0 0 0 4.76 2.529s.12 2.142.28 4.533c1.789.03 3.575-.126 5.33-.466a2.104 2.104 0 0 1 0-.754c.29-1.855 1.09-5.198 1.25-7.35a15.114 15.114 0 0 0 2.9-3.68l-.06.436c-.55 4.226-1.7 8.74-2.4 9.989a5.536 5.536 0 0 1-.83 1.14 25.73 25.73 0 0 0 9.941-4.727 25.48 25.48 0 0 0 7.021-8.43 25.252 25.252 0 0 0 .87-21.341Zm-1.47 3.76c-.44.426-1.35.714-1.5-.576a34.09 34.09 0 0 1-.19-2.192s-1.93-3.402-2.65-3.442c-.72-.04-5.831 3.442-7.181 4.96-1.17 1.28-1.4 1.19-1.4 3.442 0 1.696.22 8.104.1 13.004l-8.15 2.153c-2.562.729-5.168 1.299-7.801 1.706l-1-5.783h-.14l-2.57-13.064s-3.81-1.428-5.21-1.815a3.788 3.788 0 0 0-4 .625 5.032 5.032 0 0 0-1.285 1.722 4.995 4.995 0 0 0-.446 2.097c.212.46.373.943.48 1.438.05.476-1.2.426-2 .426s-.92-1.428-.29-3.104c.492-1.29 1.1-2.531 1.82-3.71a11.776 11.776 0 0 1 2.07-2.867s.14-.337 1.25-.238c1.11.1 7.28.427 7.28.427l.05-2.252a143.93 143.93 0 0 1 20.242-1.33v1.816a22.671 22.671 0 0 1 8.14-1.984.916.916 0 0 1 .77.387c.34.427 2.41 2.976 2.65 3.343a27.73 27.73 0 0 1 1.83 2.976 6.167 6.167 0 0 1-.87 1.825v.01Z"/><path fill="#F06351" d="M56.463 21.495c.47.595.88 1.121 1 1.28a27.74 27.74 0 0 1 1.83 2.976c-.19.63-.48 1.226-.86 1.765-.44.427-1.35.714-1.5-.575-.15-1.29-.21-2.143-.21-2.143s-1.93-3.402-2.65-3.442c-.72-.04-5.83 3.442-7.18 4.96-1.17 1.28-1.4 1.19-1.4 3.442 0 1.488.17 6.596.13 11.14 1.81.198 4.47.694 5.27 1.864 0 0-.29-7.122 7.81-3.392 0 0 .28-9.711 11.46-7.221a43.671 43.671 0 0 0-13.7-10.654ZM45.932 19.194a89.015 89.015 0 0 0-1.4-16.397s-.15-1.29-.87-.238a14.057 14.057 0 0 0-1.2 3.968 71.461 71.461 0 0 0-12.82.337c-.82-2.728-2.22-3.968-2.89-3.64-.67.327-.75 3.253-.75 3.253l-.33 14.046a143.942 143.942 0 0 1 20.26-1.33Z"/><path fill="#E55645" d="M45.352 46.74c.13-1.062.2-2.47.24-4.028l-8.15 2.153a64.434 64.434 0 0 1-7.8 1.756l1.11 4.96c0 .108 0 .218.07.327a32.398 32.398 0 0 0 4.76 2.53 42.484 42.484 0 0 0 6.88-4.098v.06a15.115 15.115 0 0 0 2.89-3.66Z"/><path fill="#000" d="M32.002 16.09c-.05-.1 1 .674 1.41.912.41.238.61.416.61.585 0 .169-.26.337-.62.337s-.92-.119-1-.258c-.08-.139.6 0 .94 0h.29a8.052 8.052 0 0 1-1.63-1.577ZM39.502 16.198s-1 1.27-1.09 1.33c-.09.059-.17.337.19.287a8.146 8.146 0 0 0 1.22-.278c.11-.06.07-.198-.12-.178-.19.02-.68.05-1 .109l.85-1.26s.03-.119-.05-.01ZM36.362 22.259a2.293 2.293 0 0 0 1.09-.992c.28-.655 0-.903-.44-.992-.606-.11-1.23.01-1.75.337-.39.367-.34.724 0 .992a5.17 5.17 0 0 0 1.1.655Z"/><path fill="#F06351" d="M36.002 23.509c-.115.225-.271.427-.46.595-.285.227-.635.36-1 .377a2.193 2.193 0 0 1-1.54-.437 1.995 1.995 0 0 1-.53-.446 1.002 1.002 0 0 0-.36-.248s.75 4.077 2.57 4.731c1.82.655 2.16-.753 2.21-1.13a5.55 5.55 0 0 0-.82-3.214c0-.298-.02-.1-.07-.228Z"/><path fill="#000" d="M34.301 24.64a3.518 3.518 0 0 1-2.35-1.419.148.148 0 0 1 0-.198.14.14 0 0 1 .155-.031.14.14 0 0 1 .045.03 3.209 3.209 0 0 0 2.11 1.3 2.121 2.121 0 0 0 1.64-.992l.14-.188.1.218s.38.754 1 .794c.62.04 1.06-.417 1.63-1.28a.144.144 0 0 1 .2-.04.143.143 0 0 1 .04.199c-.666.972-1.296 1.438-1.89 1.398a1.557 1.557 0 0 1-1.12-.724 2.254 2.254 0 0 1-1.7.933Z"/><path fill="#FDC305" d="M36.262 37.99c2.07 0 3.75-1.665 3.75-3.719s-1.68-3.72-3.75-3.72c-2.072 0-3.75 1.666-3.75 3.72 0 2.054 1.678 3.72 3.75 3.72Z"/><path fill="#111" d="m41.232 31.246-3.13 1.3 1.15-5.585-7.5 9.68 3.13-1.298-1.15 5.594 7.5-9.691Zm-7.39 3.799 4.16-5.366-.81 3.967 2-.813-4.19 5.376.81-3.968-1.97.804ZM32.441 33.587c.62 0 1.12-.498 1.12-1.111 0-.614-.5-1.111-1.12-1.111-.618 0-1.12.497-1.12 1.11 0 .614.502 1.112 1.12 1.112ZM38.962 37.614c.436 0 .79-.35.79-.784a.787.787 0 0 0-.79-.783c-.436 0-.79.35-.79.783 0 .433.354.784.79.784ZM39.922 35.462c.193 0 .35-.156.35-.348a.349.349 0 0 0-.35-.347.349.349 0 0 0-.35.347c0 .192.157.348.35.348Z"/><path fill="#F06351" d="M45.882 20.99a57.219 57.219 0 0 0-5.09 5.167 31.79 31.79 0 0 1-5.31 4.86c-.22-.525-1.63-1.507-1.63-1.507s-3.14-2.133-5.2-3.81a31.78 31.78 0 0 1-3.14-2.975l-2-.109a22.62 22.62 0 0 0 12 8.769c.86-.14 3.28-1.855 5.09-3.254a57.44 57.44 0 0 0 6-5.862 6.314 6.314 0 0 0 1.14-1.984c-1.14.377-1.86.704-1.86.704Z"/><path fill="#FDC305" d="m65.223 3.472-8.46 9.364-1.22-1.974L63.693 0l1.53 3.472ZM62.653 17.12l5.54-4.076-.78-3.71-5.4 4.771.64 3.016ZM59.923 48.972l6.13 3.154 3.01-2.321-6.69-2.728-2.45 1.895ZM1.95 5.922l3.07-3.333 9.29 8.927-1.22 2.262L1.95 5.922ZM7.38 16.149l-4.7-3.105-2.4 3.839 5.15 2.38 1.95-3.114ZM13.91 52.126l-4.55 3.323L12.16 59l4.02-3.988-2.27-2.886Z"/><path fill="#F06351" d="M25.931 27.774s-3.81-1.428-5.21-1.815a3.788 3.788 0 0 0-4 .625 5.032 5.032 0 0 0-1.285 1.722 4.994 4.994 0 0 0-.445 2.097c.211.46.372.943.48 1.438.05.476-1.2.426-2 .426s-.92-1.428-.29-3.104c.491-1.29 1.1-2.531 1.82-3.71C9.55 28.27 0 34.777 0 34.777a46.196 46.196 0 0 1 8.19.238c5.25.526 5 4.632 5 4.632a38.924 38.924 0 0 1 5.63-1.1c2.121-.14 2.271 2.102 2.271 2.102l.53 3.83a18.248 18.248 0 0 1 2.65-2.342 6.095 6.095 0 0 1 4.38-1.29l-2.72-13.073Z"/>
  </svg>
  <svg id="logo-mobile" width="34" height="38" viewBox="0 0 34 38" fill="none">
    <g clip-path="url(#clip0_37030_313)">
    <path d="M6.07 20.72V18.46C12.7536 17.5423 19.4937 17.0979 26.24 17.13C26.24 17.73 26.24 18.34 26.18 18.95C28.0976 18.099 30.1128 17.4877 32.18 17.13C30.8625 13.722 28.4618 10.8412 25.3471 8.93087C22.2325 7.02052 18.5764 6.1864 14.9414 6.55683C11.3064 6.92727 7.89379 8.48172 5.22852 10.9811C2.56325 13.4804 0.792971 16.7863 0.190002 20.39L6.07 20.72Z" fill="#FDC305"/>
    <path d="M27.24 24.23C26.08 25.51 25.85 25.43 25.85 27.68C25.85 28.59 25.85 32.58 25.85 36.86C28.1425 35.346 30.0245 33.2879 31.328 30.8694C32.6315 28.4509 33.3158 25.7474 33.32 23C33.3068 21.9591 33.1997 20.9216 33 19.9C30.9282 21.1295 28.9968 22.5814 27.24 24.23Z" fill="#FDC305"/>
    <path d="M6.36 25.72C6.36 25.72 2.57 24.28 1.17 23.89C0.787067 23.7693 0.396097 23.6757 0 23.61C0.108395 26.496 0.965588 29.3041 2.48739 31.7586C4.00919 34.2131 6.14326 36.2296 8.68 37.61L6.36 25.72Z" fill="#FDC305"/>
    <path d="M26.29 17.12C26.3307 11.5986 25.862 6.08528 24.89 0.65C24.89 0.65 24.75 -0.64 24 0.41C23.4109 1.65814 23.0067 2.98539 22.8 4.35C18.5418 4.07577 14.2675 4.18957 10.03 4.69C9.24 2 7.85 0.75 7.18 1C6.51 1.25 6.46 4.31 6.46 4.31L6.13 18.41C12.8113 17.506 19.548 17.0749 26.29 17.12Z" fill="#F06351"/>
    <path d="M12.41 14C12.41 13.91 13.41 14.68 13.82 14.92C14.23 15.16 14.43 15.34 14.43 15.51C14.43 15.68 14.16 15.85 13.8 15.85C13.44 15.85 12.89 15.73 12.8 15.58H13.74H14.03C13.4207 15.1294 12.8757 14.5978 12.41 14Z" fill="black"/>
    <path d="M19.89 14.11L18.8 15.44C18.8 15.5 18.63 15.79 18.98 15.74C19.3942 15.6783 19.8023 15.5812 20.2 15.45C20.31 15.45 20.27 15.26 20.09 15.28C19.91 15.3 19.4 15.33 19.09 15.39L19.93 14.13C19.93 14.13 20 14 19.89 14.11Z" fill="black"/>
    <path d="M16.75 20.2C17.2135 19.9958 17.5967 19.6443 17.84 19.2C18.12 18.55 17.84 18.29 17.4 18.2C16.7979 18.0902 16.1765 18.2116 15.66 18.54C15.27 18.9 15.32 19.26 15.61 19.54C15.9613 19.8062 16.3442 20.0279 16.75 20.2Z" fill="black"/>
    <path d="M16.35 21.45C16.2379 21.6785 16.0816 21.8825 15.89 22.05C15.6052 22.2791 15.2551 22.4122 14.89 22.43C14.3638 22.472 13.8406 22.3189 13.42 22C13.2222 21.8808 13.0436 21.7324 12.89 21.56C12.7895 21.4491 12.6669 21.3605 12.53 21.3C12.53 21.3 13.28 25.4 15.1 26.05C16.92 26.7 17.24 25.3 17.3 24.92C17.3601 23.7851 17.0742 22.6588 16.48 21.69C16.46 21.38 16.45 21.58 16.35 21.45Z" fill="#F06351"/>
    <path d="M14.71 22.59C14.2453 22.5247 13.7989 22.3651 13.3982 22.1209C12.9975 21.8767 12.651 21.5531 12.38 21.17C12.3667 21.157 12.3561 21.1414 12.3489 21.1242C12.3417 21.1071 12.338 21.0886 12.338 21.07C12.338 21.0514 12.3417 21.0329 12.3489 21.0158C12.3561 20.9986 12.3667 20.983 12.38 20.97C12.393 20.9567 12.4086 20.9461 12.4258 20.9389C12.4429 20.9317 12.4614 20.928 12.48 20.928C12.4986 20.928 12.5171 20.9317 12.5342 20.9389C12.5514 20.9461 12.567 20.9567 12.58 20.97C13.0848 21.6642 13.843 22.1313 14.69 22.27C15.0217 22.245 15.3426 22.1413 15.6261 21.9674C15.9096 21.7934 16.1475 21.5544 16.32 21.27L16.46 21.08L16.56 21.29C16.56 21.29 16.93 22.05 17.56 22.09C18.19 22.13 18.61 21.68 19.17 20.81C19.183 20.7967 19.1986 20.7861 19.2158 20.7789C19.2329 20.7717 19.2514 20.768 19.27 20.768C19.2886 20.768 19.3071 20.7717 19.3242 20.7789C19.3414 20.7861 19.357 20.7967 19.37 20.81C19.4023 20.8306 19.4255 20.8629 19.4348 20.9C19.4441 20.9372 19.4388 20.9766 19.42 21.01C18.78 22.01 18.15 22.45 17.54 22.41C17.308 22.3763 17.0867 22.2904 16.8927 22.1587C16.6987 22.0271 16.5371 21.8531 16.42 21.65C16.2233 21.9245 15.9676 22.1514 15.6717 22.3141C15.3758 22.4767 15.0472 22.571 14.71 22.59Z" fill="black"/>
    <path d="M26.24 18.92C24.4445 20.5437 22.7512 22.277 21.17 24.11C19.5987 25.9361 17.8238 27.5768 15.88 29C15.66 28.47 14.26 27.49 14.26 27.49C14.26 27.49 11.13 25.35 9.08001 23.67C7.97415 22.7373 6.92871 21.7353 5.95001 20.67L3.95001 20.56C6.84019 24.7655 11.0702 27.8676 15.95 29.36C16.81 29.22 19.22 27.5 21.02 26.1C23.1389 24.2819 25.124 22.3134 26.96 20.21C27.4625 19.621 27.8493 18.9425 28.1 18.21C27 18.6 26.24 18.92 26.24 18.92Z" fill="#F06351"/>
    </g>
    <defs>
    <clipPath id="clip0_37030_313">
    <rect width="33.32" height="37.61" fill="white"/>
    </clipPath>
    </defs>
  </svg>
  <svg id="logo-tablet" width="61" height="51" fill="none" viewBox="0 0 61 51">
    <path fill="#FDC305" d="M51.582 19.854a22.231 22.231 0 0 0-6.936-9.09 21.96 21.96 0 0 0-10.503-4.396A21.887 21.887 0 0 0 22.865 7.83a22.083 22.083 0 0 0-9.058 6.934 22.354 22.354 0 0 0-4.43 10.564 22.432 22.432 0 0 0 1.373 11.386 22.238 22.238 0 0 0 6.813 9.184 21.965 21.965 0 0 0 10.442 4.54c-.5-1.815-1.008-3.822-1.456-5.951a27.756 27.756 0 0 0 4.1 2.215s.104 1.877.241 3.971c1.54.027 3.08-.11 4.592-.408a1.874 1.874 0 0 1 0-.66c.25-1.625.939-4.553 1.077-6.439a13.212 13.212 0 0 0 2.498-3.224l-.052.383c-.474 3.701-1.464 7.655-2.067 8.75a4.845 4.845 0 0 1-.715.999 22.006 22.006 0 0 0 8.563-4.141 22.237 22.237 0 0 0 6.047-7.386 22.45 22.45 0 0 0 .749-18.694Zm-1.266 3.293c-.38.374-1.163.626-1.293-.504-.129-1.13-.163-1.92-.163-1.92s-1.663-2.98-2.283-3.015c-.62-.035-5.022 3.015-6.185 4.344-1.008 1.121-1.206 1.043-1.206 3.015 0 1.486.19 7.1.086 11.392l-7.02 1.886a54.724 54.724 0 0 1-6.72 1.494l-.861-5.066h-.12L22.335 23.33s-3.282-1.252-4.488-1.59a3.213 3.213 0 0 0-3.445.547c-.472.417-.85.931-1.107 1.509a4.437 4.437 0 0 0-.384 1.836c.182.404.321.826.414 1.26.043.417-1.034.374-1.723.374-.69 0-.793-1.251-.25-2.72.424-1.129.948-2.217 1.568-3.25a10.312 10.312 0 0 1 1.783-2.51s.12-.296 1.077-.21c.956.088 6.271.374 6.271.374l.043-1.972a121.95 121.95 0 0 1 17.436-1.165v1.59a19.265 19.265 0 0 1 7.011-1.737.778.778 0 0 1 .664.339c.293.373 2.076 2.607 2.283 2.928.579.835 1.105 1.705 1.576 2.607a5.44 5.44 0 0 1-.75 1.599v.008Z"/><path fill="#F06351" d="M48.636 17.83c.405.52.758.981.862 1.12.579.835 1.105 1.706 1.576 2.607a5.444 5.444 0 0 1-.74 1.547c-.38.373-1.164.625-1.293-.504-.13-1.13-.18-1.877-.18-1.877s-1.663-2.98-2.283-3.015c-.62-.035-5.023 3.015-6.186 4.344-1.008 1.121-1.206 1.043-1.206 3.015 0 1.304.147 5.779.112 9.758 1.56.174 3.851.609 4.54 1.634 0 0-.25-6.239 6.728-2.972 0 0 .241-8.506 9.872-6.325a37.712 37.712 0 0 0-11.802-9.333ZM39.565 15.813A79.266 79.266 0 0 0 38.36 1.45s-.129-1.13-.749-.208a12.474 12.474 0 0 0-1.034 3.475 60.536 60.536 0 0 0-11.043.296c-.707-2.39-1.913-3.476-2.49-3.189-.577.287-.646 2.85-.646 2.85l-.284 12.304a121.956 121.956 0 0 1 17.452-1.165Z"/><path fill="#E55645" d="M39.065 39.943c.112-.93.172-2.163.207-3.527l-7.02 1.885a54.724 54.724 0 0 1-6.72 1.538l.957 4.345c0 .095 0 .19.06.286a27.75 27.75 0 0 0 4.1 2.216 36.478 36.478 0 0 0 5.927-3.589v.053a13.21 13.21 0 0 0 2.49-3.207Z"/><path fill="#000" d="M27.566 13.094c-.043-.087.861.59 1.214.8.353.208.526.364.526.512 0 .148-.224.295-.534.295-.31 0-.793-.104-.862-.226-.069-.121.517 0 .81 0h.25a6.987 6.987 0 0 1-1.404-1.381ZM34.026 13.19s-.861 1.112-.939 1.164c-.077.052-.146.295.164.252a6.911 6.911 0 0 0 1.051-.244c.095-.052.06-.173-.103-.156-.164.017-.586.043-.862.096l.732-1.104s.026-.104-.043-.009ZM31.322 18.498c.399-.177.729-.482.938-.868.242-.574 0-.791-.379-.87a2.095 2.095 0 0 0-1.507.296c-.336.322-.293.634 0 .869.29.23.61.423.948.573Z"/><path fill="#F06351" d="M31.011 19.593a1.78 1.78 0 0 1-.396.522c-.245.199-.547.314-.861.33a1.866 1.866 0 0 1-1.327-.383 1.724 1.724 0 0 1-.456-.39.862.862 0 0 0-.31-.218s.645 3.572 2.213 4.145c1.568.573 1.86-.66 1.904-.99a4.925 4.925 0 0 0-.706-2.816c0-.26-.018-.087-.06-.2Z"/><path fill="#000" d="M29.547 20.584a2.998 2.998 0 0 1-2.024-1.243.131.131 0 0 1 0-.173.122.122 0 0 1 .086-.037.121.121 0 0 1 .086.037 2.785 2.785 0 0 0 1.817 1.138 1.806 1.806 0 0 0 1.413-.87l.12-.164.087.191s.327.66.861.695c.534.035.913-.365 1.404-1.12a.123.123 0 0 1 .172-.035.125.125 0 0 1 .035.173c-.574.852-1.117 1.26-1.628 1.225a1.328 1.328 0 0 1-.965-.634 1.954 1.954 0 0 1-1.464.817Z"/><path fill="#FDC305" d="M31.235 32.28c1.784 0 3.23-1.46 3.23-3.259 0-1.8-1.446-3.258-3.23-3.258s-3.23 1.458-3.23 3.258 1.446 3.258 3.23 3.258Z"/><path fill="#111" d="m35.516 26.37-2.696 1.14.99-4.893-6.46 8.48 2.697-1.138-.991 4.901 6.46-8.49ZM29.151 29.7l3.583-4.701-.698 3.476 1.723-.713-3.61 4.71.699-3.476-1.697.704ZM27.945 28.422a.969.969 0 0 0 .965-.974.969.969 0 0 0-.965-.973.969.969 0 0 0-.965.973c0 .538.432.974.965.974ZM33.561 31.95c.376 0 .68-.308.68-.687a.684.684 0 0 0-.68-.687.684.684 0 0 0-.68.687c0 .379.304.686.68.686ZM34.388 30.064a.303.303 0 0 0 .302-.304.303.303 0 0 0-.302-.305.303.303 0 0 0-.301.305c0 .168.135.304.301.304Z"/><path fill="#F06351" d="M39.522 17.386a49.73 49.73 0 0 0-4.384 4.527 27.555 27.555 0 0 1-4.574 4.258c-.19-.46-1.405-1.32-1.405-1.32s-2.704-1.869-4.48-3.337a27.578 27.578 0 0 1-2.704-2.607l-1.723-.096a19.507 19.507 0 0 0 10.337 7.681c.741-.121 2.826-1.624 4.385-2.85a49.885 49.885 0 0 0 5.169-5.135c.429-.514.761-1.103.982-1.738-.982.33-1.603.617-1.603.617ZM22.337 23.33s-3.282-1.252-4.488-1.59a3.213 3.213 0 0 0-3.446.547c-.472.417-.85.931-1.107 1.509a4.439 4.439 0 0 0-.383 1.836c.182.404.32.826.413 1.26.043.417-1.033.374-1.723.374-.689 0-.792-1.251-.25-2.72.424-1.129.949-2.217 1.568-3.25C8.227 23.764 0 29.464 0 29.464a39.136 39.136 0 0 1 7.055.209c4.523.46 4.307 4.058 4.307 4.058a33.033 33.033 0 0 1 4.85-.965c1.826-.121 1.956 1.842 1.956 1.842l.456 3.354a15.804 15.804 0 0 1 2.283-2.05 5.189 5.189 0 0 1 3.773-1.13L22.337 23.33Z"/>
  </svg>
  <svg id="slim-icon" width="36" height="50" viewBox="0 0 36 50" fill="none">
    <path d="M28.2034 0H28.008C27.6778 0.187081 27.415 0.473924 27.2571 0.819588C26.968 1.37738 26.7453 1.96735 26.5937 2.57732C26.5612 2.76073 26.4688 2.92811 26.331 3.05315C26.1932 3.17818 26.0179 3.25377 25.8326 3.26804C25.2658 3.36597 24.7288 3.59243 24.2626 3.93012C23.7965 4.26781 23.4135 4.7078 23.1429 5.21649C22.7708 5.87697 22.4526 6.5665 22.1914 7.27835C21.4611 9.17526 20.9006 11.134 20.2114 13.0464C19.8874 13.9175 19.872 13.9175 18.8949 13.9175C17.7274 13.9175 17.8097 13.7371 17.7943 15.0258C17.7943 15.433 17.9177 15.6392 18.3497 15.6186C18.4834 15.6186 18.684 15.5515 18.7354 15.7268C18.7869 15.9021 18.612 15.9794 18.5091 16.0825C17.8994 16.7029 17.1276 17.1388 16.2823 17.3402C15.3051 17.6031 14.3074 17.8093 13.356 18.1289C10.9131 18.9485 8.65543 20.0928 6.89657 22.0309C5.86814 23.2347 5.04455 24.6001 4.45886 26.0722C2.57143 30.5258 1.656 35.2165 0.946286 39.9536C0.612 42.1753 0.375429 44.4072 0.195429 46.6546C0.102857 47.7577 0 48.8763 0 50H17.1411C17.1696 49.7731 17.1283 49.5429 17.0229 49.3402C16.858 48.9289 16.5901 48.5672 16.2451 48.29C15.9 48.0128 15.4895 47.8295 15.0531 47.7577C14.6931 47.6753 14.652 47.567 14.8731 47.2835C15.2338 46.801 15.5103 46.2607 15.6909 45.6856C16.5291 43.2062 16.8531 40.6186 17.2594 38.0567C17.4889 36.0999 18.0894 34.2051 19.0286 32.4742C19.7611 31.2002 20.7382 30.0842 21.9034 29.1907C22.3303 28.866 22.3457 28.866 22.4177 29.4175C22.4691 29.7835 22.4794 30.1598 22.5051 30.5309C22.6595 32.9662 22.6285 35.4097 22.4126 37.8402C22.2184 39.7242 22.1926 41.6217 22.3354 43.5103C22.5399 45.7029 22.9304 47.8739 23.5029 50H30.3429C30.2536 49.442 29.9973 48.9243 29.6078 48.5156C29.2184 48.1069 28.7143 47.8264 28.1623 47.7113C27.5177 47.6087 26.8587 47.6438 26.2286 47.8144C25.92 47.8866 25.7914 47.8144 25.7657 47.4794C25.5529 44.7505 25.7261 42.0051 26.28 39.3247C26.966 36.2304 27.4912 33.1025 27.8537 29.9536C27.9887 28.6819 28.3881 27.4528 29.0263 26.3454C29.6383 25.2526 30.1731 24.1186 30.7749 23.0206C31.0138 22.6214 31.1575 22.1723 31.195 21.7083C31.2325 21.2443 31.1626 20.7779 30.9909 20.3454C30.852 19.9794 30.7183 19.6082 30.5486 19.2577C30.0343 18.2526 29.52 17.2577 29.0469 16.2423C28.7949 15.7268 28.8514 15.6649 29.412 15.6495C30.2503 15.6495 30.2503 15.6495 30.2657 14.8041C30.2657 14.6907 30.2657 14.5773 30.2657 14.4639C30.2657 14.1082 30.132 13.9124 29.7514 13.9485C29.4943 13.9485 29.2371 13.9485 28.9697 13.9485C28.6149 13.9485 28.512 13.799 28.5994 13.433C28.7729 12.838 29.1142 12.306 29.5823 11.9009C30.0503 11.4958 30.6252 11.2349 31.2377 11.1495C32.3772 11.0505 33.5251 11.1252 34.6423 11.3711C34.7712 11.4118 34.9109 11.4001 35.0312 11.3383C35.1515 11.2766 35.2427 11.1699 35.2851 11.0412C35.4909 10.5258 35.7171 10.0103 35.9486 9.49484C36.001 9.40339 36.0242 9.29801 36.015 9.19293C36.0058 9.08785 35.9647 8.98812 35.8971 8.90722C34.2514 6.81443 32.4669 4.86082 30.0343 3.60825C29.9168 3.55754 29.8138 3.47814 29.7347 3.3773C29.6557 3.27646 29.6031 3.15738 29.5817 3.03093C29.444 2.29408 29.225 1.57487 28.9286 0.886598C28.7895 0.519904 28.5349 0.20865 28.2034 0V0Z" fill="black"/>
  </svg>
  <svg id="weight-icon" width="67" height="28" viewBox="0 0 67 28" fill="none">
    <path d="M61.5591 2.87843C62.1364 1.95997 62.9036 1.17573 63.8091 0.578427C64.3091 0.228427 64.6091 0.228427 64.9091 0.878427C65.3091 1.82843 65.6591 2.82843 65.3591 3.87843C65.3045 4.05651 65.2942 4.24523 65.3291 4.4282C65.3639 4.61117 65.4429 4.78288 65.5591 4.92843C65.8591 5.32843 66.1091 5.72843 66.3591 6.07843C66.6994 6.51031 66.9201 7.02408 66.9991 7.5682C67.078 8.11231 67.0125 8.66763 66.8091 9.17843C66.6256 9.67433 66.5908 10.213 66.7091 10.7284C66.809 11.2234 66.809 11.7334 66.7091 12.2284C66.6687 12.5991 66.5187 12.9494 66.2782 13.2344C66.0377 13.5194 65.7177 13.7262 65.3591 13.8284C64.7196 13.9501 64.1488 14.3069 63.7591 14.8284C63.7119 14.9052 63.6457 14.9686 63.5669 15.0124C63.488 15.0562 63.3993 15.0789 63.3091 15.0784C62.7091 15.1784 61.2091 13.8284 61.2091 13.2284V12.9284C61.2591 11.1284 61.1591 10.9784 59.5091 10.2284C59.1638 10.1066 58.8544 9.90037 58.6091 9.62843C58.3091 9.22843 57.9091 9.27843 57.4591 9.42843C57.0091 9.57843 56.7591 9.87843 56.8091 10.3784C56.9599 11.5889 57.0101 12.8097 56.9591 14.0284C56.9624 14.1675 56.9966 14.3041 57.0591 14.4284C58.6091 16.6784 59.2091 19.3284 59.9591 21.8784C60.5591 23.8284 61.6591 24.8784 63.6591 25.0284C63.9792 25.054 64.2968 25.1041 64.6091 25.1784C65.02 25.2444 65.4017 25.4322 65.7048 25.7174C66.0078 26.0027 66.2183 26.3723 66.3091 26.7784C66.6591 27.8284 66.4591 28.0784 65.4091 28.0784H62.1591C61.7384 28.0997 61.3259 27.9562 61.0091 27.6784C60.5031 27.2514 59.9282 26.9132 59.3091 26.6784C58.6247 26.4258 58.0323 25.9728 57.6091 25.3784C57.0234 24.5602 56.3531 23.806 55.6091 23.1284C54.2091 21.6784 52.7091 20.2784 51.4091 18.7784C50.4195 17.7563 49.8486 16.4006 49.8091 14.9784C49.8091 14.5284 49.7091 14.3284 49.2091 14.5284C49.0594 14.6234 48.8864 14.6753 48.7091 14.6784C47.3091 14.6784 46.6091 15.5284 46.1091 16.7784C45.6591 17.8284 45.0591 18.8284 44.5091 19.8784C44.1972 20.5357 44.0269 21.2511 44.0091 21.9784C44.0091 23.1784 44.3091 23.5784 45.4091 23.9784C46.1091 24.2284 46.7591 24.4784 47.1091 25.1784C47.5091 25.9784 47.4091 26.1784 46.5591 26.2284H43.1591C42.9631 26.2478 42.7659 26.2052 42.5955 26.1065C42.425 26.0078 42.2899 25.8581 42.2091 25.6784L41.3091 24.1784C41.0438 23.7871 40.874 23.3389 40.8132 22.87C40.7524 22.4011 40.8024 21.9245 40.9591 21.4784C41.1755 20.6102 41.1926 19.7042 41.0091 18.8284C40.8831 18.2185 40.8939 17.5882 41.0409 16.9829C41.1879 16.3777 41.4674 15.8126 41.8591 15.3284C42.1591 14.9784 42.1591 14.8284 41.6591 14.7284C39.6146 14.2941 37.6325 13.6054 35.7591 12.6784C35.7459 12.6784 35.7331 12.6732 35.7238 12.6638C35.7144 12.6544 35.7091 12.6417 35.7091 12.6284C34.1091 12.0284 33.8091 12.1284 33.3591 13.7784C32.9591 15.1784 32.5591 16.5784 32.2591 18.0284C31.9091 19.6284 32.3091 21.1284 32.8091 22.6284C33.0091 23.2284 33.6091 23.1784 34.0591 23.3284C35.0591 23.6284 35.9091 24.0284 36.3091 25.0784C36.6591 25.8784 36.6091 25.9784 35.7591 25.9784C34.9091 25.9784 34.0591 25.9284 33.1591 25.9784C32.3997 25.9922 31.6584 25.7451 31.0591 25.2784C28.6591 23.6784 27.9591 21.2284 27.7591 18.5784C27.6591 16.9284 26.7591 15.6284 25.7091 14.3784C25.5091 14.1284 25.3091 14.0284 25.0091 14.2284C23.9359 14.8202 22.8153 15.3219 21.6591 15.7284C19.2462 16.5804 17.1289 18.1077 15.5591 20.1284C14.9729 20.8659 14.5933 21.746 14.4591 22.6784C14.3091 23.5784 14.5591 23.9784 15.4591 24.2284C16.3591 24.4784 16.8091 24.9784 16.9091 25.9284C16.9591 26.3284 16.8091 26.5284 16.4091 26.5284H12.3591C12.2266 26.519 12.0982 26.4778 11.9851 26.4081C11.8719 26.3385 11.7772 26.2425 11.7091 26.1284C11.081 25.3508 10.7449 24.3779 10.7591 23.3784C10.7329 21.6509 10.8837 19.9252 11.2091 18.2284C11.2759 17.7203 11.4656 17.2361 11.7618 16.8178C12.0581 16.3996 12.4519 16.06 12.9091 15.8284C15.8591 14.4284 17.4091 11.7784 18.8091 9.02843C19.1091 8.47843 18.8591 8.37843 18.3591 8.42843C16.9598 8.62269 15.634 9.17368 14.5091 10.0284C13.0362 11.1029 11.6487 12.2897 10.3591 13.5784C8.98394 14.9753 7.16046 15.8427 5.20911 16.0284C1.55911 16.2284 -0.140885 14.1784 0.00911497 10.8784C0.0426462 9.75323 0.466939 8.67482 1.20912 7.82843C1.46713 7.49393 1.81898 7.24392 2.21975 7.11033C2.62052 6.97674 3.05201 6.96563 3.45912 7.07843C4.20912 7.27843 4.40911 7.67843 4.10911 8.42843C3.95911 8.72843 3.75911 8.97843 3.60911 9.27843C3.39341 9.58491 3.22488 9.92198 3.10911 10.2784C2.55911 11.7784 3.30911 12.8284 4.85911 12.9784C6.50911 13.1284 7.85912 12.4284 9.10912 11.4284C10.6151 10.2226 11.9595 8.82775 13.1091 7.27843C13.9687 6.14713 15.0512 5.20407 16.2895 4.50749C17.5279 3.81091 18.8959 3.37559 20.3091 3.22843C21.4591 3.07843 22.4591 2.57843 23.5591 2.27843C25.6164 1.65123 27.7586 1.34761 29.9091 1.37843C30.9052 1.41991 31.8974 1.23172 32.8091 0.828427C35.2591 -0.171573 37.8091 -0.171573 40.3591 0.328427C42.3591 0.728427 44.3591 1.22843 46.3091 1.72843C47.4696 1.94467 48.6629 1.91057 49.8091 1.62843C52.0034 1.07219 54.248 0.737189 56.5091 0.628427C57.9904 0.55636 59.4667 0.848196 60.8091 1.47843C61.8091 1.92843 61.8091 1.92843 61.5591 2.87843Z" fill="black"/>
  </svg>
  <svg id="arrow-long" width="32" height="12" viewBox="0 0 32 12" fill="none">
    <line y1="6" x2="26" y2="6" stroke="black" stroke-width="2"/>
    <path d="M32 6L25.25 11.1962L25.25 0.803848L32 6Z" fill="black"/>
  </svg>
  <svg id="arrow-short" width="24" height="12" viewBox="0 0 24 12" fill="none">
    <line y1="6" x2="18" y2="6" stroke="black" stroke-width="2"/>
    <path d="M24 6L17.25 11.1962L17.25 0.803848L24 6Z" fill="black"/>
  </svg>
</svg>
